<?xml version="1.0" encoding="UTF-8" standalone="no"?>
<!-- Created with Inkscape (http://www.inkscape.org/) -->

<svg
   width="40mm"
   height="40mm"
   viewBox="0 0 40 40"
   version="1.1"
   id="svg1"
   xmlns="http://www.w3.org/2000/svg"
   xmlns:svg="http://www.w3.org/2000/svg">
  <defs
     id="defs1" />
  <g
     id="layer1">
    <path
       id="path1"
       d="m 14.376607,18.588867 c -0.460022,-0.189794 -0.929922,-0.289983 -1.419931,-0.289983 -2.903361,0 -5.159727,2.547761 -5.159727,5.376685 0,2.729795 2.233083,4.665134 4.863747,4.665134 2.133952,0 4.168775,-1.265414 5.583061,-3.349978 1.364897,-1.985081 2.059869,-4.615744 2.605616,-7.717366 0.397228,-2.258131 0.769408,-5.087056 1.166283,-7.8665921 0.372534,-2.555874 0.670278,-4.441824 1.340203,-7.3204912 -0.769408,-0.223308 -1.811514,-0.347133 -2.754489,-0.347133 -1.98508,0 -4.14408,0.545747 -5.955594,1.88595 -1.98508,1.4640272 -3.275541,3.6974632 -3.275541,5.7816742 0,2.2087421 1.464027,4.0449501 3.548591,4.0449501 0.272697,0 0.570795,-0.04974 0.818797,-0.09913 v -0.372181 c -2.084563,-0.02505 -3.002491,-2.059869 -3.002491,-3.8466891 0,-1.736724 0.868539,-3.647722 2.381955,-4.9131352 1.340203,-1.116895 3.176411,-1.662642 4.839053,-1.662642 0.496358,0 0.967669,0.04974 1.364897,0.148872 -0.397228,2.0845642 -0.818797,4.6157442 -1.116542,6.7250032 -0.421922,2.9527491 -0.719666,6.2533381 -0.942975,8.0648521 -0.298097,2.506133 -0.719666,5.062361 -1.762125,6.923264 -1.017411,1.836208 -2.605616,2.903361 -4.317647,2.903361 -2.382308,0 -4.268258,-2.010128 -4.268258,-4.367389 0,-2.233436 1.712031,-4.04495 4.168775,-4.04495 0.375356,0 0.890764,0.05715 1.254478,0.128058 z"
       style="fill:#739960;fill-opacity:1;fill-rule:nonzero;stroke:none;stroke-width:0.352778" />
    <path
       id="path2"
       d="m 12.754535,31.473722 c 0,1.292578 1.376891,2.303991 3.118908,2.303991 1.405114,0 2.585155,-0.674158 3.5687,-1.714147 1.517297,1.208264 1.967088,1.601964 3.737327,3.091039 2.444397,2.051403 4.411486,3.484386 6.238169,3.484386 1.573389,0 3.062817,-1.067858 4.29895,-2.809875 l -0.393347,-0.337255 c -0.730603,0.89923 -1.742017,1.489427 -2.865967,1.489427 -1.742369,0 -3.737327,-1.489427 -6.182077,-3.372202 -1.348669,-1.039636 -2.556933,-2.023181 -3.793419,-2.922411 1.180394,-1.826331 2.079272,-4.439708 2.500841,-6.294261 0.449792,-2.023181 0.674511,-4.439708 0.955322,-6.181725 0.61842,-3.933825 1.74237,-5.535788 3.147131,-5.535788 1.629833,0 2.304344,2.079624 2.304344,3.905955 0,2.416528 -1.180041,5.760508 -3.400072,7.193491 l 0.280811,0.393347 c 2.838097,-1.629833 4.608336,-5.114219 4.608336,-7.980185 0,-2.388658 -1.236133,-4.4958 -3.399719,-4.4958 -2.44475,0 -4.299303,2.697339 -5.311069,6.490758 -0.561975,2.079272 -0.646289,3.793419 -0.983545,6.097764 -0.196497,1.404761 -0.730603,3.962047 -1.573389,5.816599 -1.461205,-0.955322 -2.276122,-1.349022 -3.259666,-1.349022 -1.798108,0 -3.596569,1.264708 -3.596569,2.725914 z m 1.095727,-0.393347 c 0,-0.702734 0.561975,-1.3208 1.489428,-1.3208 0.842786,0 1.770239,0.505883 3.427942,1.770239 -0.674159,0.871008 -1.489075,1.432983 -2.528711,1.432983 -1.349023,0 -2.388659,-0.955322 -2.388659,-1.882422 z"
       style="fill:#739960;fill-opacity:1;fill-rule:nonzero;stroke:none;stroke-width:0.352778" />
    <path
       id="path3"
       d="m 15.579226,21.534208 0.497417,0.06032 -0.113242,0.274462 0.608189,0.006 -0.112183,0.219428 c 0.405341,0.156986 1.72473,-0.508 1.965677,-0.03845 0.223661,0.43568 -0.849841,0.458611 -1.084086,0.434269 -0.08255,0.12947 0.214136,0.108656 0.108303,0.221192 -0.114653,0.121708 -0.505178,-0.0508 -0.685094,0.0021 -0.108303,0.03175 -0.03528,0.134055 -0.04798,0.148519 -0.0314,0.03528 -0.3556,0.14993 -0.375708,0.172155 0.333022,-0.374297 0.379236,-0.443088 0.944033,-0.379236 -0.18662,-0.311855 0.517878,-0.234597 0.742597,-0.275872 0.208492,-0.0381 0.388408,-0.07055 0.289278,-0.327378 -0.682272,-0.239888 -1.267883,0.281164 -1.968147,0.09737 l 0.05644,-0.164747 c -0.207433,-0.0071 -0.421569,0.05539 -0.550686,-0.143581 l 0.166511,-0.191558 c -0.143228,-0.0011 -0.34043,7.06e-4 -0.441325,-0.115006 z"
       style="fill:#79946c;fill-opacity:1;fill-rule:nonzero;stroke:none;stroke-width:0.352778" />
    <path
       id="path4"
       d="m 22.460509,18.939528 c -0.239536,0.303036 -0.49918,0.424039 -0.339372,0.882297 0.06526,-0.02822 0.239183,-0.03245 0.276578,-0.05327 -0.103011,0.06244 -0.191559,0.16898 -0.33267,0.162983 -0.11818,-0.357364 -0.07796,-0.726369 0.256117,-0.940858 0.05503,-0.03528 0.122767,-0.03986 0.139347,-0.05115 z"
       style="fill:#79946c;fill-opacity:1;fill-rule:nonzero;stroke:none;stroke-width:0.352778" />
    <path
       id="path5"
       d="m 20.224604,15.269581 c 0.10795,-0.223308 0.209197,-0.452261 0.392289,-0.634647 l 0.151694,0.120297 -0.121356,2.840919 c 0.388409,-0.48648 0.46602,-1.177219 0.733425,-1.736372 l -0.276225,0.08114 c 0.09984,-0.47378 -0.166511,-0.716492 -0.322438,-1.109133 0.241652,0.247297 0.460727,0.582436 0.434269,0.944033 l 0.275872,-0.107597 c 0.06279,0.2032 0.12065,0.339019 0.05221,0.552803 l 0.324556,-0.04551 0.0042,0.380295 c 0.369358,-0.155223 0.402167,0.136172 0.383117,0.446264 0.746125,-0.188031 0.730955,0.14358 0.491772,0.722841 l 0.331964,-0.107244 -0.227189,0.522816 c 0.33655,0.100895 -0.0822,0.63747 -0.253294,0.747889 -0.05503,0.03528 -0.122767,0.03951 -0.138995,0.05115 0.175331,-0.22225 0.447322,-0.402519 0.448381,-0.71508 l -0.27552,-0.02963 0.335492,-0.46743 -0.388056,0.106539 c 0.07408,-0.240948 0.325614,-0.433564 0.200025,-0.716845 l -1.036108,1.484136 0.952147,-1.513769 c 0.06985,-0.220839 -0.419805,0.105128 -0.497064,0.02469 l -0.05186,-0.498122 c -0.125236,-0.02434 -0.08784,0.006 -0.123119,0.06914 -0.322792,0.57785 -0.446264,1.195212 -0.94227,1.691217 0.167922,-0.264583 0.806097,-1.385005 0.844903,-1.623836 0.02858,-0.178506 -0.147814,-0.0025 -0.166158,-0.02963 l 0.05856,-0.497064 -0.274814,0.08431 -0.112183,-0.06103 0.05856,-0.413455 -0.611717,1.58115 c -0.333375,0.398991 -0.307269,0.843844 -0.297744,1.342319 0.173919,-0.08502 0.365125,-0.247297 0.500591,-0.382764 -0.13088,0.206022 -0.212725,0.378883 -0.491772,0.448381 0.01976,0.09208 -0.06738,0.246944 -0.06773,0.293158 l -0.0081,0.912636 0.837494,-0.849489 c -0.224366,0.387703 -0.534105,0.736247 -0.894997,0.998714 -0.01305,1.059039 -0.03881,2.117019 0.08431,3.169355 l 0.721783,-0.379941 -0.585258,0.436386 c -0.05433,0.04269 0.02858,0.08114 0.06279,0.104069 0.632884,0.428272 1.524,0.542572 2.267656,0.620536 0.07832,0.0046 0.123119,-0.05856 0.18168,-0.09384 -0.0039,0.03634 7.06e-4,0.07408 -0.0014,0.11042 l 2.046111,0.07267 c -0.179211,-0.421569 -0.4572,-0.661458 -0.935214,-0.560917 -0.1397,-0.126294 0.515056,-0.25153 0.500945,-0.382058 -0.391936,0.101953 -0.879122,0.17392 -1.216731,0.407458 -0.142522,0.09807 -0.234597,0.255764 -0.3937,0.352425 0.05151,-0.505883 1.151467,-0.706966 1.53035,-0.814916 0.287867,-0.08149 -0.246591,-0.238478 -0.291041,-0.290336 -0.01129,-0.01305 0.02963,-0.08326 0.01446,-0.101247 -0.103363,-0.124178 -0.927452,0.09701 -0.738011,-0.166864 0.01446,-0.02011 0.157692,0.03634 0.105128,-0.1143 -0.32385,-0.0064 -1.315155,0.02081 -1.019528,-0.507648 0.677334,-0.330552 1.217436,0.252942 1.907823,0.127706 l -0.10795,-0.221544 0.607836,0.0042 -0.10795,-0.276225 0.497769,-0.05186 c 0.0575,-0.155575 -0.27305,-0.226131 -0.218017,-0.277284 0.0092,-0.0088 0.106892,-0.01729 0.167217,-0.08079 0.08149,-0.08608 0.141111,-0.214136 0.222956,-0.303389 -0.331964,0.112184 -0.685448,0.242359 -1.041048,0.251884 -0.365125,0.0095 -0.873477,-0.119945 -1.244599,-0.03951 -0.237067,0.05151 -0.433564,0.421217 -0.651934,0.53587 0.04304,-0.26282 0.509764,-0.456142 0.557036,-0.687564 0.131939,-0.643467 -0.476955,-1.680986 -0.08855,-2.405592 -0.504825,0.367948 -0.32138,0.805039 -0.894644,1.153584 0.01799,-0.0099 0.245533,-0.271639 0.27058,-0.310797 0.214842,-0.339373 0.290336,-0.940859 0.791634,-1.007886 l -0.0011,0.221544 c 0.100895,-0.02399 0.163336,-0.187325 0.257528,-0.206022 0.05503,-0.01129 0.161925,0.05821 0.185914,0.0441 -0.012,0.01164 -7.06e-4,0.108303 -0.05433,0.142169 -0.08149,0.05115 -0.261761,-0.07796 -0.363008,0.124178 l -0.136878,-0.105128 c -0.253294,0.777875 0.1143,1.494014 0.09031,2.268009 0.0949,0.0575 0.463197,-0.360892 0.490361,-0.476956 0.136878,-0.583142 -0.110772,-1.417461 0.140406,-2.033411 -0.0095,-0.0575 -0.155928,0.0702 -0.166864,0.08114 0.02822,-0.01658 0.179916,-0.499886 0.335139,-0.286103 l 0.0254,0.12312 0.559152,-0.327378 c 0.150284,0.0028 0.138289,0.168275 0.13335,0.278694 0.0194,0.02716 0.07126,-0.05503 0.0829,-0.05503 l 1.106311,0.0099 c 0.240242,0.267758 -0.01482,0.719314 -0.03246,0.971197 -0.0014,0.02187 0.166511,0.01764 0.09984,0.381705 -0.05609,0.30727 -0.258233,0.275873 -0.331258,0.359128 0.09313,-0.115358 0.307269,-0.287514 0.252941,-0.439914 -0.485422,0.421217 -1.128183,0.542573 -1.747308,0.621242 l -0.335845,0.410986 1.828095,-0.371475 -0.104775,-0.139347 c 0.01482,-0.04833 0.0889,-0.05927 0.106892,-0.08149 -0.0074,0.0085 -0.02505,0.128764 0.03951,0.111125 0.249061,-0.03528 0.110772,0.258586 -0.04269,0.359128 0.07161,0.0889 0.204963,0.04551 0.162983,0.194381 l -0.276578,0.05397 c 0.322439,0.259291 -0.20955,0.538691 -0.208844,0.688622 3.52e-4,0.04621 0.147814,0.18803 0.08961,0.305152 l -0.498475,0.05186 0.163336,0.19438 c -0.122766,0.185914 -0.301272,0.129117 -0.494947,0.1397 l -0.03528,0.163689 c -0.665339,0.12312 -1.200502,-0.294216 -1.867605,-0.1778 l -0.09596,0.129822 c -0.03563,0.343253 0.820209,0.242006 1.0541,0.338314 l -0.0046,0.195439 c 0.538339,-0.08255 0.81527,0.1016 1.080558,0.535517 l -0.04904,0.123119 -0.319264,0.176742 c 0.437445,0.01305 0.480837,0.344664 0.689681,0.55633 0.08043,0.08149 0.282222,0.100189 0.243064,0.198614 -0.210608,0.414514 -0.837847,0.309739 -1.059039,0.432153 -0.06138,0.03387 0.03246,0.147814 -0.07549,0.251531 -0.126295,0.121708 -0.313267,0.113947 -0.475898,0.10548 l -0.05609,0.191911 -0.553861,0.02364 c -0.03916,0.112184 0.232127,0.353484 0.108655,0.417336 -0.179211,0.09243 -0.714022,0.116417 -0.858308,-0.09102 -0.124531,0.131939 -0.07691,0.34043 -0.325261,0.263525 -0.06421,-0.02011 -0.07585,-0.09278 -0.09102,-0.102306 0.02611,0.02046 0.182033,0.0628 0.222603,0.03457 l 0.112183,-0.307975 c 0.142875,-0.0085 0.158397,0.138642 0.303389,0.167217 0.109361,0.02152 0.306564,0.01693 0.413456,-0.02258 -0.523523,-0.355952 -0.817386,-0.982133 -0.989542,-1.577269 l -0.65405,-0.124178 0.207786,1.550458 c 0.224367,0.05891 0.02011,-0.251177 0.167217,-0.275166 -0.03422,0.120297 0.141464,0.494594 0.216958,0.554919 -0.07161,-0.04551 -0.182386,-0.147108 -0.197908,-0.153458 -0.04904,-0.02081 -0.131586,0.04339 -0.241653,-0.04233 -0.07514,-0.05891 -0.105833,-0.182739 -0.119239,-0.190853 -0.03387,-0.02046 -0.242711,0.09737 -0.327378,-0.04516 -0.13088,-0.477661 -0.0949,-0.968375 -0.148166,-1.45803 0.331258,0.432858 -0.0095,0.923572 0.210961,1.43898 l 0.329142,0.0039 -0.159456,-1.433336 -0.351014,-0.12065 c -0.04657,-0.0021 -0.03422,0.07055 -0.02963,0.111125 -0.191206,-0.249414 -0.47872,-0.466725 -0.80257,-0.286456 -0.520347,0.289984 -0.171802,1.270706 -0.422275,1.732139 -0.09066,0.142522 -0.293158,0.0194 -0.328083,0.03986 -0.02046,0.01199 -0.08996,0.225778 -0.261055,0.269169 l -0.05292,-0.111477 c -0.04092,0.04445 -0.08819,0.07902 -0.1397,0.109361 0.05115,-0.106539 0.09701,-0.2667 0.114653,-0.385939 0.138289,0.01446 -0.05186,0.276225 0.162983,0.222603 l 0.23495,-1.546578 -0.657225,0.11183 c -0.164042,0.588081 -0.497064,1.21532 -1.016353,1.560689 0.277636,0.09031 0.471664,0.03175 0.691445,-0.132644 l 0.165452,0.334786 c 0.09701,-0.0014 0.217312,-0.113595 0.304095,-0.164747 -0.165453,0.344664 -0.394406,0.285397 -0.524933,-0.05891 -0.233187,0.275872 -0.521759,0.112183 -0.820562,0.09278 l -0.09066,-0.07373 0.167216,-0.35807 c -0.05997,-0.05503 -0.745066,0.127706 -0.605719,-0.22613 -0.14852,0.0014 -0.357717,-0.01482 -0.474839,-0.1143 -0.09807,-0.08326 0.0074,-0.204611 -0.07091,-0.252942 -0.192617,-0.11818 -1.005417,-0.02434 -0.987778,-0.524933 0.346075,-0.185561 0.383822,-0.648758 0.88265,-0.663575 l -0.383117,-0.306917 c 0.03316,-0.06491 0.129822,-0.09595 0.166159,-0.136878 -0.08537,0.0949 0.01623,0.09384 0.07938,0.112889 0.678391,0.206375 1.244247,0.263173 1.658408,0.944034 0.808566,-0.08431 1.64853,-0.13335 2.324805,-0.633942 l -1.017058,-0.8382 1.099608,0.727781 c -0.239889,-0.986014 0.0194,-2.099028 -0.08008,-3.0734 -0.01023,-0.09701 -0.0314,-0.159456 -0.112184,-0.219428 -0.0187,-0.04445 0.09384,-0.0039 0.110773,-0.0635 0.09102,-0.318206 0.04269,-0.765175 0.06985,-1.097844 l -0.223662,-0.248356 0.276578,0.02928 0.0081,-0.940153 c 0,-0.02399 -0.199319,-0.297039 -0.244122,-0.418042 -0.1524,-0.408516 -0.242006,-0.866069 -0.389467,-1.262591 -0.02611,-0.0702 -0.03104,-0.162631 -0.124178,-0.178859 l 0.05151,0.38735 -0.386292,-0.05821 0.05009,0.497769 -0.166158,0.02681 0.432505,1.137356 c -0.124178,-0.119239 -0.213078,-0.357011 -0.281164,-0.518231 -0.103716,-0.24518 -0.195086,-0.500238 -0.261055,-0.758472 -0.242006,-0.04657 -0.138289,0.462492 -0.169686,0.496006 l -0.468137,-0.115359 -0.03034,0.167217 -0.109362,-0.0575 c -0.06738,0.300567 0.127353,0.468489 0.214489,0.721078 L 18.26764,17.686454 c 0.05397,0.236714 0.219781,0.365125 0.382059,0.528462 l -0.330906,-0.03034 c 0.07973,0.750005 1.206853,0.813858 0.813859,1.721202 -0.71755,-0.138641 -0.753887,-0.81915 -1.093964,-1.336675 0.46108,0.420159 0.364066,1.07562 1.039636,1.225903 0.332669,-0.786694 -0.886884,-0.887589 -0.817386,-1.6383 l 0.168627,-0.05433 -0.271286,-0.527755 0.329848,0.113242 c -0.213431,-0.552803 -0.197556,-1.007887 0.503766,-0.659342 -0.01376,-0.32385 -0.0085,-0.639939 0.391584,-0.494595 0.0134,-0.150283 -0.05186,-0.337961 0.08643,-0.438855 l 0.248003,0.110067 0.06138,-0.552098 0.274461,0.112537 c -0.03528,-0.213078 0.09984,-0.349603 0.170745,-0.496006 l -0.06174,0.662869 -0.246945,-0.167569 c -0.04233,-0.0092 -0.03493,0.05115 -0.02716,0.08114 0.03175,0.124883 0.533753,1.78435 0.619478,1.748719 l 0.08819,-0.24518 0.01905,-2.57422 z m 3.881261,5.12198 c 0.06738,-0.216958 0.238125,-0.252236 0.312561,-0.491772 0.104775,-0.336903 0.05292,-0.688269 0.0956,-1.018469 0.03457,-0.265995 0.134056,-0.503061 0.220487,-0.75177 -0.02046,-0.0254 -0.518584,0.318559 -0.552098,0.35807 -0.277988,0.330905 -0.141111,1.435805 -0.185914,1.875366 z m 1.955094,-2.084563 -0.912636,-0.0078 c -0.03881,-3.52e-4 -0.239889,0.113242 -0.301625,0.0501 -0.02963,-0.03034 0.0515,-0.181328 -0.05609,-0.163689 -0.01129,0.0949 -0.07197,0.173567 -0.09772,0.263878 -0.09631,0.335491 -0.175684,1.018469 -0.189089,1.371952 -0.0021,0.0508 0.02399,0.236714 0.08043,0.243064 0.536928,-0.118533 1.108428,-0.227541 1.521884,-0.623358 l -0.165806,-0.05715 c 0.222603,-0.285044 0.174625,-0.567267 0.173919,-0.910519 l -0.221897,0.219427 z m -0.127353,1.935338 c -0.225425,0.04868 -0.436739,0.140759 -0.663575,0.189089 -0.369711,0.07902 -0.979664,0.08961 -1.290108,0.193675 -0.0822,0.02752 -0.485069,0.414867 -0.4318,0.480836 0.214842,-0.128764 0.417689,-0.0018 0.633236,0.0078 0.545747,0.02434 1.018822,0.01023 1.524706,-0.210961 L 25.48699,20.764134 25.875045,20.627961 25.76639,20.434992 Z m -7.99853,3.856567 c 0.02575,-0.0956 -0.03916,-0.111125 -0.08114,-0.166864 -0.351367,-0.467078 -0.95003,-0.595489 -1.486605,-0.732367 -0.05962,0.138995 0.62865,0.249767 0.465666,0.391584 -0.465314,-0.128764 -0.762705,0.138288 -0.944739,0.544688 z m 2.104672,-0.312914 -0.382058,0.112889 -0.184503,1.374422 0.329847,0.05785 c 0.227542,-0.525638 -0.07232,-1.058686 0.236714,-1.545166 z m -2.77248,0.805039 c 0.186619,-0.131939 0.382411,-0.287161 0.556683,-0.437092 l -2.047169,0.09278 c 0.192616,0.299861 0.5334,0.242711 0.817033,0.320675 0.405342,0.111125 0.159808,0.230364 0.673453,0.02364 -0.01799,0.0127 -0.03951,0.06703 -0.08996,0.101247 -0.129469,0.08925 -0.379588,0.06773 -0.355247,0.226483 l 0.607836,0.006 -0.167216,0.218722 0.662516,0.06209 c 0.06844,0.06526 -0.248355,0.391936 -0.0314,0.330552 0.397228,-0.112889 0.827617,-1.0668 0.981428,-1.428397 -0.03422,-0.02505 -0.75177,0.03669 -0.845961,0.05891 -0.176389,0.04198 -0.505531,0.321028 -0.762,0.424392 z m 7.022041,0.28328 c -0.4064,-0.0127 -0.828675,-0.544336 -1.153583,-0.649464 -0.108656,-0.03528 -0.834672,-0.12453 -0.886531,-0.08749 0.147461,0.363713 0.56127,1.325386 0.956381,1.444977 0.220133,0.06667 -0.114653,-0.237772 0.02752,-0.3048 l 0.610306,-0.07655 -0.163336,-0.221544 c 0.168628,-0.01446 0.36195,0.02364 0.525991,0.0042 0.07655,-0.0092 0.166159,-0.03245 0.08326,-0.109361 z m 1.055511,-0.543983 -2.045405,-0.128411 c 0.103716,0.126294 0.809625,0.602192 0.907344,0.596194 0.03739,-0.0021 0.202847,-0.133702 0.315383,-0.161572 0.287161,-0.07091 0.624064,-0.01164 0.822678,-0.306211 z"
       style="fill:#79946c;fill-opacity:1;fill-rule:nonzero;stroke:none;stroke-width:0.352778" />
    <path
       id="path6"
       d="m 17.083118,20.330531 c -0.2667,-0.352072 -0.53975,-0.255059 -0.894292,-0.354895 -0.147814,-0.04163 -0.315383,-0.09701 -0.457553,-0.153458 -0.210961,-0.08361 -0.462844,-0.289983 -0.605366,-0.337608 -0.02787,-0.0092 -0.09031,-0.01588 -0.08185,0.02575 l 0.21837,0.305859 c -0.265289,-0.01623 -0.322086,-0.422628 -0.270581,-0.629003 0.01094,-0.04304 0.10795,-0.03598 0.106892,-0.05962 -0.01305,-0.251884 -0.26035,-0.707673 -0.01552,-0.97155 l 1.106311,0.0095 c 0.01164,3.52e-4 0.06209,0.08326 0.08184,0.05644 l 0.02787,-0.222955 c 0.111125,-0.173214 0.560916,0.190852 0.663575,0.283633 l 0.02787,-0.122414 c 0.163336,-0.168275 0.220839,0.159456 0.356658,0.242006 0.117828,0.07161 0.250825,-0.09066 0.386997,0.219074 0.135467,-0.371827 0.136173,-0.205669 0.304448,-0.05221 l -0.111478,0.02716 c 0.317147,0.813153 -0.159456,1.604081 -0.119592,2.420761 l 1.303867,1.377245 c -0.10407,0.02328 -0.131233,-0.05891 -0.192617,-0.111831 -0.257175,-0.220486 -0.983544,-1.105253 -1.218494,-1.160639 -0.369711,-0.08678 -0.880181,0.03387 -1.244953,0.01764 -0.3556,-0.01552 -0.706614,-0.152047 -1.036461,-0.269875 0.08008,0.09066 0.137583,0.219781 0.217664,0.30727 0.05891,0.06456 0.156633,0.07479 0.165805,0.08361 0.05397,0.05221 -0.277283,0.117122 -0.223308,0.273755 -0.13088,-0.14993 0.06032,-0.187325 0.0314,-0.275519 -0.04516,-0.137231 -0.293158,-0.292806 -0.304094,-0.476955 l 0.113242,-0.07902 0.0021,-0.110066 -0.165453,-0.05609 0.440267,0.142169 -0.221544,0.134761 c 0.501297,0.196498 0.976136,0.274109 1.518002,0.234598 l 0.637117,-0.07585 c -0.121003,-0.08819 -0.296333,-0.366536 -0.42298,-0.407458 -0.322087,-0.104069 -0.912989,-0.127705 -1.287992,-0.214841 -0.225072,-0.05221 -0.458964,-0.177448 -0.659695,-0.17392 l 0.162984,0.249767 -0.277284,0.108655 c 0.277989,-0.28328 0.07655,-0.180975 0.01376,-0.369358 -0.08008,-0.240594 0.06809,-0.154869 0.111478,-0.186267 0.06279,-0.04586 0.03775,-0.115005 0.07408,-0.105833 0.171097,0.04339 -0.04727,0.200025 -0.02928,0.220133 l 1.79317,0.404284 -0.0254,-0.166864 0.116064,-0.07761 c -0.0081,-0.612423 0.04939,-1.219553 -0.09878,-1.818922 l -0.605345,-0.376386 c 0.0628,0.234244 0.180622,0.453672 0.208492,0.699205 0.0388,0.339725 -0.01693,0.730956 0.07585,1.077031 0.06562,0.24518 0.254353,0.277636 0.303742,0.496711 z m -1.004711,-2.11067 c -0.294923,-0.02611 -0.614892,0.01199 -0.912636,-0.0078 l 0.161925,0.388409 -0.218017,-0.222956 c -0.0067,0.3429 -0.05962,0.624417 0.158044,0.913342 l -0.166863,0.05398 c 0.414513,0.411691 0.995891,0.528461 1.541991,0.650522 0.0095,-0.08502 0.05927,-0.160161 0.05927,-0.248003 -7.06e-4,-0.324908 -0.06138,-0.976842 -0.137936,-1.292225 -0.02822,-0.115711 -0.113242,-0.220133 -0.126295,-0.342194 -0.106891,-0.01976 -0.02858,0.132644 -0.05856,0.162278 -0.06209,0.06138 -0.250825,-0.0508 -0.300919,-0.05539 z m 1.305983,0.392289 c -0.02364,-0.01376 -0.111125,-0.267758 -0.227894,-0.271991 0.222249,0.640644 0.0014,1.386416 0.0956,2.016477 0.02222,0.150636 0.417336,0.61842 0.489656,0.532342 -3.53e-4,-0.779639 0.38735,-1.481314 0.129822,-2.266244 l -0.138289,0.102658 c -0.100189,-0.211667 -0.288572,-0.07832 -0.348897,-0.113242 z"
       style="fill:#79946c;fill-opacity:1;fill-rule:nonzero;stroke:none;stroke-width:0.352778" />
    <path
       id="path7"
       d="M 20.183681,19.914959 C 19.808326,19.563592 19.507407,19.054181 19.311262,18.580048 Z"
       style="fill:#79946c;fill-opacity:1;fill-rule:nonzero;stroke:none;stroke-width:0.352778" />
  </g>
</svg>
