<?xml version="1.0" encoding="UTF-8" standalone="no"?>
<!-- Created with Inkscape (http://www.inkscape.org/) -->

<svg
   width="40mm"
   height="40mm"
   viewBox="0 0 40 40.000001"
   version="1.1"
   id="svg1"
   sodipodi:docname="pattern.svg"
   inkscape:version="1.4.2 (f4327f4, 2025-05-13)"
   xmlns:inkscape="http://www.inkscape.org/namespaces/inkscape"
   xmlns:sodipodi="http://sodipodi.sourceforge.net/DTD/sodipodi-0.dtd"
   xmlns="http://www.w3.org/2000/svg"
   xmlns:svg="http://www.w3.org/2000/svg">
  <sodipodi:namedview
     id="namedview1"
     pagecolor="#ffffff"
     bordercolor="#000000"
     borderopacity="0.25"
     inkscape:showpageshadow="2"
     inkscape:pageopacity="0.0"
     inkscape:pagecheckerboard="0"
     inkscape:deskcolor="#d1d1d1"
     inkscape:document-units="mm"
     inkscape:zoom="3.8571392"
     inkscape:cx="123.53715"
     inkscape:cy="88.53712"
     inkscape:window-width="3440"
     inkscape:window-height="1377"
     inkscape:window-x="-8"
     inkscape:window-y="-8"
     inkscape:window-maximized="1"
     inkscape:current-layer="svg1" />
  <defs
     id="defs1">
    <clipPath
       clipPathUnits="userSpaceOnUse"
       id="clipPath33">
      <path
         d="M 0,0 H 425.197 V 425.197 H 0 Z"
         transform="matrix(1.3333333,0,0,-1.3333333,0,566.92933)"
         clip-rule="evenodd"
         id="path33" />
    </clipPath>
    <clipPath
       clipPathUnits="userSpaceOnUse"
       id="clipPath22">
      <path
         d="M 0,0 H 426 V 426 H 0 Z"
         transform="matrix(1.3333333,0,0,-1.3333333,0,566.92933)"
         id="path22" />
    </clipPath>
    <clipPath
       clipPathUnits="userSpaceOnUse"
       id="clipPath21">
      <path
         d="M 0,0 H 425.197 V 425.197 H 0 Z"
         clip-rule="evenodd"
         id="path21" />
    </clipPath>
    <clipPath
       clipPathUnits="userSpaceOnUse"
       id="clipPath24">
      <path
         d="M 0,0 H 426 V 426 H 0 Z"
         transform="matrix(1.3333333,0,0,-1.3333333,0,566.92933)"
         id="path24" />
    </clipPath>
    <clipPath
       clipPathUnits="userSpaceOnUse"
       id="clipPath23">
      <path
         d="M 0,0 H 425.197 V 425.197 H 0 Z"
         clip-rule="evenodd"
         id="path23" />
    </clipPath>
    <clipPath
       clipPathUnits="userSpaceOnUse"
       id="clipPath26">
      <path
         d="M 0,0 H 426 V 426 H 0 Z"
         transform="matrix(1.3333333,0,0,-1.3333333,0,566.92933)"
         id="path26" />
    </clipPath>
    <clipPath
       clipPathUnits="userSpaceOnUse"
       id="clipPath25">
      <path
         d="M 0,0 H 425.197 V 425.197 H 0 Z"
         clip-rule="evenodd"
         id="path25" />
    </clipPath>
    <clipPath
       clipPathUnits="userSpaceOnUse"
       id="clipPath28">
      <path
         d="M 0,0 H 426 V 426 H 0 Z"
         transform="matrix(1.3333333,0,0,-1.3333333,0,566.92933)"
         id="path28" />
    </clipPath>
    <clipPath
       clipPathUnits="userSpaceOnUse"
       id="clipPath27">
      <path
         d="M 0,0 H 425.197 V 425.197 H 0 Z"
         clip-rule="evenodd"
         id="path27" />
    </clipPath>
    <clipPath
       clipPathUnits="userSpaceOnUse"
       id="clipPath446">
      <path
         d="M 0,0 H 850.394 V 425.197 H 0"
         transform="translate(2.5e-6)"
         clip-rule="evenodd"
         id="path446" />
    </clipPath>
    <clipPath
       clipPathUnits="userSpaceOnUse"
       id="clipPath449">
      <path
         d="M 0,0 H 850.394 V 425.197 H 0"
         transform="translate(2.5e-6)"
         clip-rule="evenodd"
         id="path449" />
    </clipPath>
    <clipPath
       clipPathUnits="userSpaceOnUse"
       id="clipPath473">
      <path
         d="M 0,0 H 850.394 V 425.197 H 0"
         transform="translate(2.5e-6)"
         clip-rule="evenodd"
         id="path473" />
    </clipPath>
    <clipPath
       clipPathUnits="userSpaceOnUse"
       id="clipPath476">
      <path
         d="M 0,0 H 850.394 V 425.197 H 0"
         transform="translate(2.5e-6)"
         clip-rule="evenodd"
         id="path476" />
    </clipPath>
    <clipPath
       clipPathUnits="userSpaceOnUse"
       id="clipPath500">
      <path
         d="M 0,0 H 850.394 V 425.197 H 0"
         transform="translate(2.5e-6)"
         clip-rule="evenodd"
         id="path500" />
    </clipPath>
    <clipPath
       clipPathUnits="userSpaceOnUse"
       id="clipPath503">
      <path
         d="M 0,0 H 850.394 V 425.197 H 0"
         transform="translate(2.5e-6)"
         clip-rule="evenodd"
         id="path503" />
    </clipPath>
    <clipPath
       clipPathUnits="userSpaceOnUse"
       id="clipPath527">
      <path
         d="M 0,0 H 850.394 V 425.197 H 0"
         transform="translate(2.5e-6)"
         clip-rule="evenodd"
         id="path527" />
    </clipPath>
    <clipPath
       clipPathUnits="userSpaceOnUse"
       id="clipPath530">
      <path
         d="M 0,0 H 850.394 V 425.197 H 0"
         transform="translate(2.5e-6)"
         clip-rule="evenodd"
         id="path530" />
    </clipPath>
    <clipPath
       clipPathUnits="userSpaceOnUse"
       id="clipPath554">
      <path
         d="M 0,0 H 850.394 V 425.197 H 0"
         transform="translate(2.5e-6)"
         clip-rule="evenodd"
         id="path554" />
    </clipPath>
    <clipPath
       clipPathUnits="userSpaceOnUse"
       id="clipPath557">
      <path
         d="M 0,0 H 850.394 V 425.197 H 0"
         transform="translate(2.5e-6)"
         clip-rule="evenodd"
         id="path557" />
    </clipPath>
    <clipPath
       clipPathUnits="userSpaceOnUse"
       id="clipPath582">
      <path
         d="M 0,0 H 850.394 V 425.197 H 0"
         transform="translate(2.5e-6)"
         clip-rule="evenodd"
         id="path582" />
    </clipPath>
    <clipPath
       clipPathUnits="userSpaceOnUse"
       id="clipPath585">
      <path
         d="M 0,0 H 850.394 V 425.197 H 0"
         transform="translate(2.5e-6)"
         clip-rule="evenodd"
         id="path585" />
    </clipPath>
    <clipPath
       clipPathUnits="userSpaceOnUse"
       id="clipPath588">
      <path
         d="M 0,0 H 850.394 V 425.197 H 0"
         transform="translate(2.5e-6)"
         clip-rule="evenodd"
         id="path588" />
    </clipPath>
    <clipPath
       clipPathUnits="userSpaceOnUse"
       id="clipPath591">
      <path
         d="M 0,0 H 850.394 V 425.197 H 0"
         transform="translate(2.5e-6)"
         clip-rule="evenodd"
         id="path591" />
    </clipPath>
    <clipPath
       clipPathUnits="userSpaceOnUse"
       id="clipPath594">
      <path
         d="M 0,0 H 850.394 V 425.197 H 0"
         transform="translate(2.5e-6)"
         clip-rule="evenodd"
         id="path594" />
    </clipPath>
    <clipPath
       clipPathUnits="userSpaceOnUse"
       id="clipPath596">
      <path
         d="M 0,0 H 850.394 V 425.197 H 0"
         transform="translate(2.5e-6)"
         clip-rule="evenodd"
         id="path596" />
    </clipPath>
    <clipPath
       clipPathUnits="userSpaceOnUse"
       id="clipPath599">
      <path
         d="M 0,0 H 850.394 V 425.197 H 0"
         transform="translate(2.5e-6)"
         clip-rule="evenodd"
         id="path599" />
    </clipPath>
    <clipPath
       clipPathUnits="userSpaceOnUse"
       id="clipPath623">
      <path
         d="M 0,0 H 850.394 V 425.197 H 0"
         transform="translate(2.5e-6)"
         clip-rule="evenodd"
         id="path623" />
    </clipPath>
    <clipPath
       clipPathUnits="userSpaceOnUse"
       id="clipPath626">
      <path
         d="M 0,0 H 850.394 V 425.197 H 0"
         transform="translate(2.5e-6)"
         clip-rule="evenodd"
         id="path626" />
    </clipPath>
  </defs>
  <g
     id="g1"
     transform="matrix(3.9930882,0,0,3.9930882,-0.41538753,-0.34236299)">
    <path
       id="path516"
       d="m 0.67439105,6.2268699 0.44060325,0.053256 -0.1001616,0.2431973 0.538697,0.00538 -0.09945,0.1943544 C 1.813346,6.8621286 2.9820826,6.2729611 3.1956348,6.6891411 3.3936851,7.0747962 2.4426734,7.0951477 2.2352612,7.073779 2.1619584,7.1884242 2.424764,7.1697726 2.3311202,7.26949 2.2295674,7.3773511 1.8837327,7.2243776 1.7242471,7.2715091 1.6281574,7.299661 1.6931146,7.3902252 1.6817115,7.4027744 1.6538672,7.4343203 1.366641,7.5357357 1.3487999,7.5557478 1.6439602,7.2236844 1.6847305,7.1629701 2.1850645,7.2196135 2.0199832,6.9431771 2.6441205,7.0120311 2.8430198,6.975399 3.0276729,6.9414781 3.1870911,6.9126531 3.0993431,6.6853942 2.4949458,6.4727247 1.9762611,6.9343575 1.355787,6.7712058 L 1.4058894,6.6256953 C 1.2219824,6.6192534 1.0322758,6.6745382 0.91790172,6.4984999 L 1.0655159,6.328567 C 0.93849074,6.3275094 0.76367353,6.3292458 0.6743997,6.2268113 Z"
       style="fill:#b4b896;fill-opacity:1;fill-rule:nonzero;stroke:none;stroke-width:0.339187" />
    <path
       id="path517"
       d="M 6.7704939,3.9278614 C 6.5584004,4.1964974 6.3282618,4.3036807 6.4700082,4.7096873 6.5277351,4.6845832 6.6818979,4.6808527 6.7150707,4.6625366 6.6237979,4.7178214 6.5453416,4.8124574 6.4203855,4.8070298 6.3154742,4.4902298 6.3511209,4.1635929 6.6471992,3.9733094 c 0.048814,-0.03121 0.1088793,-0.035277 0.1232947,-0.045448 z"
       style="fill:#b4b896;fill-opacity:1;fill-rule:nonzero;stroke:none;stroke-width:0.339187" />
    <path
       id="path518"
       d="M 4.789846,0.67675574 C 4.8855607,0.47901025 4.9751096,0.27617665 5.137343,0.11438453 L 5.2717629,0.22122838 5.1643422,2.7379945 C 5.5082097,2.3068876 5.5771666,1.6949947 5.8138855,1.1997825 L 5.5691614,1.2713546 C 5.6576555,0.85178063 5.4216491,0.63673629 5.2837025,0.28906906 5.497695,0.50818427 5.6916417,0.80497221 5.6684077,1.1255038 L 5.912826,1.0298563 c 0.055525,0.1801082 0.10664,0.30018 0.046132,0.490125 l 0.287427,-0.040363 0.00375,0.3364738 C 6.5773145,1.6787217 6.606552,1.936843 6.5896271,2.2115843 7.2504985,2.0450435 7.2373042,2.3387788 7.0253462,2.852308 L 7.3194891,2.7569971 7.1181477,3.2199874 c 0.2981792,0.089888 -0.072755,0.5650855 -0.2244062,0.6627713 -0.048843,0.0312 -0.108811,0.035276 -0.1232601,0.045112 C 6.9258624,3.7311424 7.1669906,3.5713857 7.1677367,3.294609 L 6.9236241,3.2684957 7.2208197,2.8543493 6.877257,2.9486411 C 6.9428584,2.7352928 7.1656003,2.564681 7.0542789,2.3136833 L 6.1365746,3.6283718 6.9800982,2.2872264 C 7.0419307,2.0915154 6.6080105,2.3801625 6.5398006,2.309273 L 6.4937364,1.8676515 C 6.382789,1.8462875 6.415857,1.8730357 6.3845187,1.9290416 6.098754,2.4412133 5.9892305,2.9879827 5.5498136,3.4272294 5.6986153,3.1928517 6.2640738,2.2003909 6.2982292,1.9887386 6.323766,1.830677 6.1672697,1.9863349 6.1510563,1.962625 L 6.2031875,1.52236 5.9595835,1.5969801 5.8603372,1.5427144 5.9119588,1.1767321 5.3702093,2.577234 C 5.0748799,2.9306672 5.0980456,3.3248016 5.1063557,3.7664232 5.2605848,3.6911205 5.4297707,3.5473089 5.5498088,3.4272361 5.4339771,3.6097192 5.361357,3.7633705 5.1142926,3.8244241 c 0.017297,0.081745 -0.059832,0.2191143 -0.060207,0.2601567 l -0.00702,0.8082818 0.7420391,-0.7523163 c -0.19873,0.343257 -0.4733694,0.6519172 -0.7930866,0.8845988 -0.011499,0.9381914 -0.03419,1.8757031 0.074658,2.8077891 L 5.7103501,7.496121 5.191699,7.8827943 c -0.048227,0.037988 0.025469,0.071909 0.05566,0.092263 0.5608453,0.3792104 1.3500313,0.4806276 2.0089355,0.5498211 0.069226,0.00404 0.1091841,-0.0519 0.1608085,-0.0831 -0.00327,0.031883 7.798e-4,0.065467 -0.00115,0.097686 l 1.8127159,0.064448 C 9.0700274,8.2304673 8.8235063,8.0181363 8.4002691,8.1070034 8.276262,7.9950715 8.8563397,7.8841577 8.8439251,7.7684952 8.4967675,7.8590565 8.0652539,7.9224859 7.7659219,8.1293895 7.639812,8.2165567 7.558204,8.3559667 7.4170682,8.4417812 7.4629978,7.9933764 8.4373416,7.8153027 8.7731029,7.7199917 9.028036,7.64741 8.5543617,7.5086779 8.5150499,7.4625483 8.5050121,7.4510202 8.5412693,7.3886013 8.5280779,7.3730062 8.4363244,7.2627702 7.7063634,7.4588177 7.8742945,7.2247814 7.8870821,7.207148 8.0138025,7.2570004 7.9673364,7.1237035 7.6804526,7.1179347 6.8020947,7.1420196 7.0641157,6.6739421 7.6641037,6.3812241 8.1425266,6.8981445 8.754284,6.7872307 L 8.658502,6.5908409 9.1971979,6.5945909 9.1015499,6.3500369 9.5425258,6.3039049 C 9.5933402,6.1661961 9.3004832,6.1037858 9.3491569,6.0583341 9.3575217,6.0505461 9.444066,6.0427293 9.4974148,5.9867619 9.56966,5.9104497 9.6226084,5.7971572 9.6948555,5.7181259 9.4009164,5.8171684 9.0878474,5.9328318 8.7726751,5.9409717 8.4492937,5.9498172 7.9987526,5.8348066 7.6700465,5.9060317 7.4600557,5.9518171 7.285951,6.2794761 7.0925465,6.3808933 7.1305055,6.1482108 7.5440722,5.9765828 7.5860637,5.7717137 7.7028453,5.2015411 7.1633687,4.2823446 7.5075112,3.6406036 7.0602246,3.9665618 7.2229667,4.3539129 6.7150688,4.6625731 6.7310485,4.6537275 6.9325889,4.4220891 6.9546365,4.387153 7.14492,4.0866336 7.2119434,3.553771 7.6560407,3.4944134 l -9.614e-4,0.1963898 c 0.089379,-0.021364 0.1446288,-0.1662015 0.2282386,-0.1828225 0.048603,-0.00984 0.1432722,0.051554 0.1645054,0.039007 -0.010442,0.010172 -5.769e-4,0.095994 -0.048093,0.1261771 -0.071976,0.045449 -0.2317317,-0.069197 -0.3214132,0.1098966 L 7.5571262,3.6897888 C 7.33272,4.379017 7.6581022,5.0136353 7.6371112,5.699132 7.7209614,5.7503497 8.0472551,5.3796177 8.0714054,5.2765053 8.1925973,4.7599234 7.9733129,4.0208351 8.1958529,3.4754233 8.1871996,3.4242055 8.0577361,3.5374961 8.047832,3.5469955 8.0728303,3.5324099 8.2073858,3.1043566 8.3447228,3.2936229 l 0.022623,0.1092177 0.4952468,-0.2900047 c 0.1333681,0.0024 0.1226159,0.1489035 0.1183421,0.2465893 0.017057,0.024421 0.063025,-0.048506 0.073466,-0.048506 l 0.9799103,0.00846 c 0.212807,0.2374304 -0.01312,0.637671 -0.02866,0.8605168 -0.0013,0.019672 0.147547,0.015605 0.08856,0.3381698 C 10.044455,4.7900935 9.8651923,4.7626193 9.8005773,4.8365625 9.8830334,4.734128 10.072809,4.5814939 10.024746,4.4464971 9.5945555,4.8199424 9.0250948,4.9274641 8.4765967,4.9966586 L 8.1793665,5.3612843 9.7987803,5.0319341 9.7057769,4.9084702 c 0.013432,-0.042738 0.078966,-0.052237 0.094801,-0.071909 -0.00654,0.0075 -0.02222,0.1139665 0.035007,0.098364 0.2205391,-0.031546 0.098194,0.2289511 -0.037719,0.3181576 0.063534,0.078687 0.1813976,0.040363 0.144426,0.1719674 l -0.2451981,0.04816 C 9.9826902,5.7028394 9.5115937,5.9501066 9.5122379,6.0827286 9.5124417,6.1237739 9.6430618,6.2496088 9.5916749,6.3534 L 9.1499528,6.3991854 9.2945817,6.5714922 C 9.1859408,6.7359976 9.0278456,6.6857981 8.8560811,6.6952955 L 8.8249485,6.8401282 C 8.2355099,6.9493469 7.7614626,6.579633 7.1703952,6.6827454 l -0.0851,0.1149846 c -0.031546,0.3039115 0.7266747,0.214705 0.9338157,0.2998406 l -0.00404,0.1729856 C 8.4922062,7.1976284 8.7375745,7.360781 8.9725964,7.7450785 L 8.9290416,7.8542972 8.646295,8.0106618 c 0.3875213,0.011528 0.4259169,0.3052681 0.610943,0.4928383 0.071293,0.072245 0.249981,0.088533 0.2154169,0.1760383 -0.1867553,0.3669996 -0.7422751,0.2744019 -0.9383928,0.3826024 -0.054371,0.03019 0.0287,0.1309258 -0.066822,0.2228457 C 8.355373,9.393187 8.1898494,9.3860644 8.0457629,9.3786052 l -0.049487,0.169933 -0.4907356,0.021027 c -0.034834,0.099382 0.2055805,0.3130696 0.096061,0.3697139 -0.1587394,0.081745 -0.6324146,0.1031129 -0.7604234,-0.080725 -0.1100658,0.1166807 -0.067909,0.3015379 -0.287902,0.2333609 -0.057015,-0.01763 -0.067159,-0.08174 -0.080725,-0.09056 0.023027,0.01832 0.1613854,0.05563 0.1972369,0.03086 L 6.7692038,9.7591692 C 6.8957877,9.7516692 6.909457,9.8819543 7.0378398,9.907393 7.1347108,9.926392 7.3094265,9.922661 7.4043308,9.887385 6.9404586,9.5719433 6.6801663,9.0173736 6.5275668,8.490277 L 5.9479641,8.380041 6.1322105,9.7534082 C 6.3309059,9.8056451 6.1498824,9.5312412 6.2803333,9.5098725 6.2500084,9.6163769 6.4056971,9.948102 6.4725503,10.001354 6.4091218,9.9609915 6.3108938,9.8711061 6.2972927,9.8653402 6.2538052,9.8473606 6.1804765,9.9040107 6.0832656,9.8280253 6.0164816,9.7761346 5.9893488,9.6662332 5.9776429,9.6591106 5.9474526,9.6407945 5.762361,9.7452683 5.6876045,9.6190844 5.5714324,9.1957799 5.6032447,8.761281 5.5561353,8.3274618 5.8496004,8.7107421 5.5477705,9.1455804 5.7432306,9.602125 L 6.0345929,9.6054901 5.8934571,8.3355748 5.5823211,8.2287309 c -0.041141,-0.00202 -0.030085,0.062409 -0.026181,0.098704 C 5.3868187,8.1062852 5.1321232,7.9136269 4.8452048,8.073723 4.3843518,8.3304876 4.6928418,9.1994835 4.470946,9.607865 4.3909033,9.7340422 4.2114345,9.6251619 4.1805346,9.643478 4.1623531,9.6539965 4.1006553,9.8432589 3.9492433,9.8819265 l -0.047045,-0.098703 c -0.03619,0.039007 -0.077947,0.06987 -0.1235994,0.096668 0.045314,-0.094292 0.085812,-0.2364131 0.1015182,-0.3419003 0.1225486,0.012893 -0.04593,0.2445539 0.1442567,0.1970676 L 4.2325331,8.3650834 3.6503526,8.4641258 C 3.5050113,8.9851171 3.2101223,9.540705 2.7501164,9.846651 2.9958913,9.9267034 3.1678587,9.874803 3.3626544,9.7292925 L 3.5092168,10.025742 C 3.5952303,10.024396 3.7015694,9.9250035 3.7785989,9.8798911 3.6319682,10.185159 3.4291683,10.132586 3.3136077,9.8276542 3.1067715,10.072207 2.8513298,9.927036 2.5865945,9.9097353 L 2.5061095,9.8446146 2.6544362,9.5274742 C 2.6012859,9.4786313 1.9943782,9.6407628 2.1178084,9.3270154 1.9861701,9.3283615 1.8008045,9.3137855 1.6969797,9.2255981 1.6100817,9.1519973 1.7038062,9.0444728 1.634157,9.0017352 1.4635126,8.8969259 0.74365659,8.9800251 0.75922479,8.5367095 1.0658832,8.3722041 1.0991915,7.9617881 1.5410843,7.9485601 L 1.2016597,7.6768715 c 0.02944,-0.05766 0.1150866,-0.085139 0.1472075,-0.12109 -0.075639,0.083783 0.014384,0.082764 0.07038,0.099721 C 2.0203207,7.8383242 2.521571,7.8888632 2.888435,8.4919374 3.6047633,8.4173174 4.3489397,8.3735607 4.9478758,7.9302441 L 4.0470973,7.1877637 5.0210383,7.8325583 C 4.8085034,6.9588126 5.0383352,5.9727965 4.950043,5.1099058 4.9412936,5.0237481 4.9225352,4.9684643 4.8509659,4.9152121 4.8341786,4.876205 4.9338258,4.9118469 4.9489229,4.8592446 5.0295521,4.5770413 4.9868146,4.18121 5.0107553,3.8864565 L 4.8128396,3.666325 5.0575964,3.6924387 5.0648075,2.8593951 C 5.0650113,2.8380311 4.8883625,2.596526 4.8484738,2.4893428 4.7136808,2.1270909 4.6342775,1.7217631 4.503691,1.3707047 4.4805194,1.308632 4.4761159,1.2265499 4.3936925,1.2123047 L 4.4390453,1.5552223 4.0969075,1.5040045 4.141443,1.9449473 3.9940662,1.9683496 4.3773138,2.9760738 C 4.2672471,2.8705866 4.1886581,2.6599516 4.1281467,2.5171544 4.0361625,2.2997352 3.955365,2.0738368 3.8969573,1.8448857 3.6825235,1.8038403 3.774477,2.2549622 3.7465952,2.2844718 L 3.3318719,2.1820373 3.305114,2.3306014 3.2082762,2.2793837 C 3.1484148,2.5456458 3.3210899,2.6942099 3.3980511,2.9184123 L 3.0561844,2.8180122 C 3.1040082,3.02763 3.2510138,3.1415965 3.3948629,3.2860907 L 3.101568,3.2592944 C 3.1721498,3.9237617 4.1708545,3.9800666 3.8224421,4.7842785 3.1869748,4.6614934 3.1546164,4.0584191 2.8533508,3.5998381 3.2617323,3.9722652 3.1758159,4.5529535 3.7743107,4.6859148 4.0691661,3.9892247 2.9886524,3.8996797 3.0502146,3.2345345 L 3.1997624,3.1863743 2.9592794,2.7189746 3.2516916,2.8193747 C 3.0625956,2.3292496 3.0764004,1.9262956 3.6977908,2.2349549 3.68558,1.9483423 3.6901951,1.6681744 4.0447446,1.7970648 4.0566477,1.663765 3.998815,1.4975636 4.1212684,1.408357 l 0.2198603,0.097346 0.05441,-0.4891068 0.2429934,0.09972 C 4.6073225,0.92739002 4.7269588,0.8066394 4.7898767,0.67673074 L 4.735265,1.2642032 4.5162863,1.115639 c -0.037315,-0.00817 -0.030767,0.045112 -0.023979,0.071909 0.028219,0.1105744 0.4729628,1.5809496 0.5488385,1.5490661 L 5.1194,2.519534 5.1362258,0.23884163 Z M 8.228319,5.214397 C 8.2878439,5.022078 8.4393271,4.9908734 8.5052304,4.7788817 8.5979261,4.4803968 8.5519003,4.1690233 8.589994,3.8763053 8.6206265,3.6409094 8.7087101,3.4306138 8.7852646,3.2104813 8.766987,3.1877521 8.3256318,3.4926846 8.2960549,3.5279602 8.0497713,3.8206792 8.1712007,4.7999111 8.1312447,5.1892977 Z M 9.9603753,3.3678641 9.1519239,3.3607492 C 9.1174259,3.3604098 8.9391861,3.4611483 8.884509,3.4051792 8.85829,3.3783832 8.930064,3.2444044 8.834916,3.2603466 8.824773,3.3441296 8.771247,3.4139979 8.748355,3.493707 8.663053,3.7911737 8.5925327,4.3962825 8.580695,4.709352 8.578965,4.754128 8.601896,4.9193092 8.652123,4.9247358 9.1277303,4.8195877 9.6339999,4.7232585 10.00039,4.3725395 L 9.8534882,4.3220044 C 10.050556,4.0693107 10.008021,3.8193292 10.007581,3.5150793 L 9.8108526,3.7094327 Z M 9.8473925,5.0824538 C 9.6476788,5.1255279 9.4606855,5.206935 9.2596503,5.2500119 8.9321991,5.3195457 8.3916706,5.3293816 8.1165909,5.4213015 8.0439034,5.4457229 7.686807,5.7889799 7.734225,5.8473202 c 0.1901142,-0.1139674 0.3698494,-0.00173 0.5609136,0.00711 0.4834428,0.021364 0.9024745,0.00885 1.3508106,-0.1868923 L 9.4518323,5.5444183 9.7954632,5.424007 9.6992696,5.2527175 Z M 2.7613396,8.4987428 C 2.7842035,8.4139503 2.7269092,8.4003791 2.6897002,8.3511968 2.3781911,7.9370494 1.8480764,7.8234223 1.3725705,7.7023323 1.3198624,7.8251184 1.9294806,7.923482 1.7852248,8.0493207 1.3730445,7.9350149 1.1094293,8.1717674 0.94828143,8.5316444 Z M 4.6259848,8.2216275 4.2876121,8.3216872 4.1241239,9.5393686 4.4161978,9.5905863 C 4.6178449,9.1248827 4.3522309,8.652396 4.6259848,8.2216275 Z M 2.1697636,8.9349378 C 2.3351517,8.8179177 2.5087468,8.6802076 2.6631452,8.5475857 L 0.84944474,8.6296667 C 1.0199882,8.89525 1.3218642,8.8447111 1.5732024,8.9139045 c 0.3593001,0.098365 0.14178,0.2041912 0.5965612,0.021028 -0.015701,0.010855 -0.035036,0.059361 -0.079437,0.089542 C 1.975342,9.1035073 1.7539548,9.0845086 1.7754928,9.2252722 L 2.3139521,9.2306564 2.165761,9.424332 2.7527921,9.4792803 C 2.8133362,9.5372764 2.5327616,9.8266072 2.7249767,9.7719983 3.0767475,9.6719386 3.4579933,8.8266844 3.5944823,8.5068316 3.5641958,8.4844485 2.9282853,8.5390506 2.8447774,8.5590685 2.688582,8.5960372 2.3969831,8.8433073 2.1697617,8.9348878 Z M 8.390687,9.185596 C 8.0306745,9.1744044 7.6566532,8.7036118 7.3689214,8.6103353 7.2725576,8.5791259 6.6292899,8.5000994 6.5832968,8.5330039 6.7141544,8.8552315 7.0807137,9.7069295 7.4305856,9.8130946 7.6256851,9.8721099 7.3289991,9.6024596 7.4549397,9.5427626 L 7.9958066,9.4752671 7.8510422,9.2788773 c 0.1493775,-0.012884 0.3207008,0.021027 0.4660767,0.00375 0.067601,-0.00817 0.1470036,-0.028835 0.073572,-0.097008 z M 9.3257575,8.7039512 7.5138214,8.5899848 C 7.6056034,8.7019158 8.2309977,9.1235251 8.3175929,9.118437 8.3508699,9.116417 8.4973953,8.9997219 8.5971839,8.9749611 8.8515746,8.9122151 9.150025,8.9647891 9.3257575,8.7039512 Z"
       style="fill:#b4b896;fill-opacity:1;fill-rule:nonzero;stroke:none;stroke-width:0.339187" />
    <path
       id="path519"
       d="M 2.0067168,5.1604669 C 1.7704729,4.8484146 1.5284977,4.9342291 1.2145454,4.8460407 1.0836195,4.809072 0.93505635,4.7602291 0.80898013,4.7100267 0.62222433,4.6360797 0.39917475,4.4529226 0.27282739,4.4108639 0.24813673,4.4026914 0.1929481,4.396961 0.20027453,4.4339297 L 0.39364531,4.7049395 C 0.15889363,4.690354 0.10828738,4.330477 0.15407761,4.1473161 0.1635962,4.1093282 0.24976354,4.1157701 0.24863862,4.0947426 0.23704324,3.8715575 0.01809339,3.4675863 0.23500491,3.2338865 l 0.97994429,0.00846 c 0.010451,3.394e-4 0.055054,0.073947 0.072582,0.049862 l 0.024893,-0.197407 c 0.098398,-0.1536503 0.496874,0.1689157 0.5878439,0.2513381 L 1.9247953,3.2376007 C 2.0696963,3.0886971 2.1204381,3.3790412 2.2407137,3.4519662 2.3451154,3.5153947 2.4630845,3.3719138 2.5836659,3.6463206 2.7036704,3.316631 2.7043482,3.4638375 2.8533191,3.5998525 l -0.098839,0.024085 C 3.0355647,4.3443703 2.6134803,5.0447909 2.6486875,5.7686158 L 3.8037203,6.9886712 C 3.7116975,7.0090256 3.6875491,6.9364343 3.6329739,6.8896287 3.4052439,6.6942571 2.7617723,5.9103958 2.5537496,5.8615529 2.2260609,5.784558 1.7739929,5.8914067 1.4506797,5.8771576 1.1357112,5.8632547 0.82471081,5.7425003 0.53253511,5.6380313 c 0.0708607,0.080389 0.12180246,0.1946928 0.19272655,0.272028 0.0523331,0.056987 0.13876096,0.06614 0.14700272,0.074283 0.0477564,0.046132 -0.24574034,0.1034523 -0.19788102,0.242519 C 0.55858529,6.0939 0.72784134,6.0609993 0.70216035,5.9826468 0.66217263,5.8612183 0.44258148,5.7235083 0.43284655,5.5600201 l 0.1001616,-0.06987 0.002115,-0.097347 L 0.3883572,5.3429403 0.77855811,5.4687791 0.58233852,5.5885115 C 1.0262666,5.7625143 1.4468915,5.83103 1.9271808,5.7960938 L 2.4913499,5.7289348 C 2.3844042,5.6509208 2.2290568,5.403994 2.1168874,5.3680406 1.8314621,5.2757775 1.3077911,5.254752 0.9758286,5.1777561 0.77625154,5.1312881 0.56907594,5.0203733 0.39113875,5.023426 L 0.53566663,5.2445767 0.29016278,5.3409049 C 0.53634447,5.0899072 0.35772559,5.1804704 0.3022389,5.0135901 0.23137823,4.8009197 0.36240797,4.8765589 0.40084099,4.8487453 0.45650074,4.8080461 0.43434837,4.7469896 0.46647123,4.7551266 0.61815537,4.7934509 0.4247144,4.9325215 0.44065564,4.9501588 L 2.0292028,5.3083407 2.0067139,5.1604554 2.1096234,5.0916042 C 2.1025085,4.5489047 2.1534474,4.010955 2.0220427,3.4804662 L 1.4857553,3.1467067 c 0.055727,0.2075823 0.1600615,0.4019367 0.1848223,0.6196943 0.034228,0.3008589 -0.015095,0.6471685 0.067053,0.9541327 0.058102,0.2170798 0.2254234,0.2455711 0.2690772,0.4399255 z M 1.1165212,3.2905298 C 0.85538088,3.2674641 0.5717873,3.3010484 0.30806928,3.2834149 L 0.45157896,3.6276891 0.25827644,3.4302821 c -0.005769,0.3039115 -0.0526119,0.5532141 0.14001664,0.8089605 L 0.2505433,4.2874026 C 0.61791596,4.6516889 1.1328701,4.7551407 1.616788,4.8633412 1.625148,4.7883842 1.669188,4.7215612 1.669092,4.6435481 1.6686172,4.3559185 1.6148169,3.7786223 1.5470522,3.4991323 1.5221212,3.3963593 1.4465175,3.3037607 1.435223,3.1958996 1.3403832,3.1782565 1.4098209,3.3132581 1.3831207,3.339715 1.3281725,3.3939806 1.1609538,3.2946026 1.1165202,3.2905356 Z M 2.2736231,3.6378567 C 2.2525572,3.625646 2.1752585,3.4007658 2.0715692,3.3970343 2.2685686,3.964833 2.0731076,4.6252294 2.1562943,5.1835317 2.1762353,5.3171709 2.5262457,5.7313183 2.5901145,5.6553397 2.5899789,4.9644165 2.933507,4.3426867 2.7053703,3.6476936 L 2.5825842,3.7385914 C 2.4938882,3.5506817 2.3271762,3.668721 2.2736192,3.6378529 Z"
       style="fill:#b4b896;fill-opacity:1;fill-rule:nonzero;stroke:none;stroke-width:0.339187" />
    <path
       id="path520"
       d="M 4.7534513,4.7924491 C 4.4211167,4.4810756 4.1544479,4.0296181 3.9807162,3.6097047 Z"
       style="fill:#b4b896;fill-opacity:1;fill-rule:nonzero;stroke:none;stroke-width:0.339187" />
  </g>
</svg>
