<?xml version="1.0" encoding="UTF-8" standalone="no"?>
<!-- Created with Inkscape (http://www.inkscape.org/) -->

<svg
   width="70mm"
   height="70mm"
   viewBox="0 0 70 70.000001"
   version="1.1"
   id="svg1"
   sodipodi:docname="logo cave.svg"
   inkscape:version="1.4.2 (f4327f4, 2025-05-13)"
   xml:space="preserve"
   xmlns:inkscape="http://www.inkscape.org/namespaces/inkscape"
   xmlns:sodipodi="http://sodipodi.sourceforge.net/DTD/sodipodi-0.dtd"
   xmlns="http://www.w3.org/2000/svg"
   xmlns:svg="http://www.w3.org/2000/svg"><sodipodi:namedview
     id="namedview1"
     pagecolor="#ffffff"
     bordercolor="#000000"
     borderopacity="0.25"
     inkscape:showpageshadow="2"
     inkscape:pageopacity="0.0"
     inkscape:pagecheckerboard="0"
     inkscape:deskcolor="#d1d1d1"
     inkscape:document-units="mm"
     inkscape:zoom="1.8732079"
     inkscape:cx="133.72781"
     inkscape:cy="131.59244"
     inkscape:window-width="1920"
     inkscape:window-height="1009"
     inkscape:window-x="1912"
     inkscape:window-y="-8"
     inkscape:window-maximized="1"
     inkscape:current-layer="svg1" /><defs
     id="defs1"><clipPath
       clipPathUnits="userSpaceOnUse"
       id="clipPath33"><path
         d="M 0,0 H 425.197 V 425.197 H 0 Z"
         transform="matrix(1.3333333,0,0,-1.3333333,0,566.92933)"
         clip-rule="evenodd"
         id="path33" /></clipPath><clipPath
       clipPathUnits="userSpaceOnUse"
       id="clipPath22"><path
         d="M 0,0 H 426 V 426 H 0 Z"
         transform="matrix(1.3333333,0,0,-1.3333333,0,566.92933)"
         id="path22" /></clipPath><clipPath
       clipPathUnits="userSpaceOnUse"
       id="clipPath21"><path
         d="M 0,0 H 425.197 V 425.197 H 0 Z"
         clip-rule="evenodd"
         id="path21" /></clipPath><clipPath
       clipPathUnits="userSpaceOnUse"
       id="clipPath24"><path
         d="M 0,0 H 426 V 426 H 0 Z"
         transform="matrix(1.3333333,0,0,-1.3333333,0,566.92933)"
         id="path24" /></clipPath><clipPath
       clipPathUnits="userSpaceOnUse"
       id="clipPath23"><path
         d="M 0,0 H 425.197 V 425.197 H 0 Z"
         clip-rule="evenodd"
         id="path23" /></clipPath><clipPath
       clipPathUnits="userSpaceOnUse"
       id="clipPath26"><path
         d="M 0,0 H 426 V 426 H 0 Z"
         transform="matrix(1.3333333,0,0,-1.3333333,0,566.92933)"
         id="path26" /></clipPath><clipPath
       clipPathUnits="userSpaceOnUse"
       id="clipPath25"><path
         d="M 0,0 H 425.197 V 425.197 H 0 Z"
         clip-rule="evenodd"
         id="path25" /></clipPath><clipPath
       clipPathUnits="userSpaceOnUse"
       id="clipPath28"><path
         d="M 0,0 H 426 V 426 H 0 Z"
         transform="matrix(1.3333333,0,0,-1.3333333,0,566.92933)"
         id="path28" /></clipPath><clipPath
       clipPathUnits="userSpaceOnUse"
       id="clipPath27"><path
         d="M 0,0 H 425.197 V 425.197 H 0 Z"
         clip-rule="evenodd"
         id="path27" /></clipPath><clipPath
       clipPathUnits="userSpaceOnUse"
       id="clipPath446"><path
         d="M 0,0 H 850.394 V 425.197 H 0"
         transform="translate(2.5e-6)"
         clip-rule="evenodd"
         id="path446" /></clipPath><clipPath
       clipPathUnits="userSpaceOnUse"
       id="clipPath449"><path
         d="M 0,0 H 850.394 V 425.197 H 0"
         transform="translate(2.5e-6)"
         clip-rule="evenodd"
         id="path449" /></clipPath><clipPath
       clipPathUnits="userSpaceOnUse"
       id="clipPath473"><path
         d="M 0,0 H 850.394 V 425.197 H 0"
         transform="translate(2.5e-6)"
         clip-rule="evenodd"
         id="path473" /></clipPath><clipPath
       clipPathUnits="userSpaceOnUse"
       id="clipPath476"><path
         d="M 0,0 H 850.394 V 425.197 H 0"
         transform="translate(2.5e-6)"
         clip-rule="evenodd"
         id="path476" /></clipPath><clipPath
       clipPathUnits="userSpaceOnUse"
       id="clipPath500"><path
         d="M 0,0 H 850.394 V 425.197 H 0"
         transform="translate(2.5e-6)"
         clip-rule="evenodd"
         id="path500" /></clipPath><clipPath
       clipPathUnits="userSpaceOnUse"
       id="clipPath503"><path
         d="M 0,0 H 850.394 V 425.197 H 0"
         transform="translate(2.5e-6)"
         clip-rule="evenodd"
         id="path503" /></clipPath><clipPath
       clipPathUnits="userSpaceOnUse"
       id="clipPath527"><path
         d="M 0,0 H 850.394 V 425.197 H 0"
         transform="translate(2.5e-6)"
         clip-rule="evenodd"
         id="path527" /></clipPath><clipPath
       clipPathUnits="userSpaceOnUse"
       id="clipPath530"><path
         d="M 0,0 H 850.394 V 425.197 H 0"
         transform="translate(2.5e-6)"
         clip-rule="evenodd"
         id="path530" /></clipPath><clipPath
       clipPathUnits="userSpaceOnUse"
       id="clipPath554"><path
         d="M 0,0 H 850.394 V 425.197 H 0"
         transform="translate(2.5e-6)"
         clip-rule="evenodd"
         id="path554" /></clipPath><clipPath
       clipPathUnits="userSpaceOnUse"
       id="clipPath557"><path
         d="M 0,0 H 850.394 V 425.197 H 0"
         transform="translate(2.5e-6)"
         clip-rule="evenodd"
         id="path557" /></clipPath><clipPath
       clipPathUnits="userSpaceOnUse"
       id="clipPath582"><path
         d="M 0,0 H 850.394 V 425.197 H 0"
         transform="translate(2.5e-6)"
         clip-rule="evenodd"
         id="path582" /></clipPath><clipPath
       clipPathUnits="userSpaceOnUse"
       id="clipPath585"><path
         d="M 0,0 H 850.394 V 425.197 H 0"
         transform="translate(2.5e-6)"
         clip-rule="evenodd"
         id="path585" /></clipPath><clipPath
       clipPathUnits="userSpaceOnUse"
       id="clipPath588"><path
         d="M 0,0 H 850.394 V 425.197 H 0"
         transform="translate(2.5e-6)"
         clip-rule="evenodd"
         id="path588" /></clipPath><clipPath
       clipPathUnits="userSpaceOnUse"
       id="clipPath591"><path
         d="M 0,0 H 850.394 V 425.197 H 0"
         transform="translate(2.5e-6)"
         clip-rule="evenodd"
         id="path591" /></clipPath><clipPath
       clipPathUnits="userSpaceOnUse"
       id="clipPath594"><path
         d="M 0,0 H 850.394 V 425.197 H 0"
         transform="translate(2.5e-6)"
         clip-rule="evenodd"
         id="path594" /></clipPath><clipPath
       clipPathUnits="userSpaceOnUse"
       id="clipPath596"><path
         d="M 0,0 H 850.394 V 425.197 H 0"
         transform="translate(2.5e-6)"
         clip-rule="evenodd"
         id="path596" /></clipPath><clipPath
       clipPathUnits="userSpaceOnUse"
       id="clipPath599"><path
         d="M 0,0 H 850.394 V 425.197 H 0"
         transform="translate(2.5e-6)"
         clip-rule="evenodd"
         id="path599" /></clipPath><clipPath
       clipPathUnits="userSpaceOnUse"
       id="clipPath623"><path
         d="M 0,0 H 850.394 V 425.197 H 0"
         transform="translate(2.5e-6)"
         clip-rule="evenodd"
         id="path623" /></clipPath><clipPath
       clipPathUnits="userSpaceOnUse"
       id="clipPath626"><path
         d="M 0,0 H 850.394 V 425.197 H 0"
         transform="translate(2.5e-6)"
         clip-rule="evenodd"
         id="path626" /></clipPath></defs><path
     style="fill:#000000;stroke-width:0.313723"
     d="M 18.664388,65.774475 C 17.29255,65.643483 15.110147,65.158953 14.265074,64.797757 14.173769,64.758732 13.725536,64.585595 13.269003,64.41301 11.670619,63.808767 9.9416426,62.864626 8.3931072,61.750429 7.415698,61.047165 6.3586447,60.168483 6.2533532,59.971744 c -0.1427647,-0.266758 -0.096431,-1.136582 0.078503,-1.473579 0.1936917,-0.373146 1.7967794,-2.309879 2.742467,-3.31325 1.6898068,-1.792875 3.0047448,-2.710276 5.1392898,-3.585567 1.008295,-0.413462 1.843829,-0.621598 3.3717,-0.839919 1.641079,-0.234492 2.230617,-0.427184 2.360358,-0.771492 0.16335,-0.433497 -0.334057,-0.816402 -1.21085,-0.932112 -0.430318,-0.05679 -1.586609,0.109177 -2.72662,0.391363 -0.365227,0.09041 -0.962869,0.238712 -1.328095,0.329573 -0.365227,0.09086 -1.149632,0.224648 -1.743124,0.297305 -1.00029,0.122463 -1.140416,0.121857 -1.919187,-0.0083 C 8.6180445,49.664725 7.0113105,48.701895 6.540872,47.383006 6.4789598,47.209433 6.4266631,46.828652 6.4246593,46.536826 6.4212351,46.032917 6.4028216,45.984917 6.0592417,45.58226 5.3807319,44.787084 4.2628621,43.33763 4.2628621,43.253032 c 0,-0.0268 -0.093415,-0.196667 -0.2075852,-0.377525 C 3.6877031,42.29323 3.3591124,41.166726 3.1836773,39.887403 3.1429843,39.590659 3.0351323,39.086395 2.9440071,38.766825 2.8409379,38.405353 2.7765173,37.922383 2.7735404,37.488754 l -0.00475,-0.69703 -0.7747626,-1.25361 c -0.872103,-1.411112 -0.9683623,-1.635583 -0.9683623,-2.258162 0,-0.538551 0.1165406,-0.825233 0.473506,-1.164797 C 1.781956,31.846156 1.8280118,31.688038 1.6957042,31.440425 1.5283624,31.127247 1.1680413,29.727081 0.98038728,28.660791 0.814614,27.718835 0.82089911,26.422694 0.99300167,26.060019 1.2931492,25.427505 2.1847927,25.187558 4.2317768,25.188444 c 1.3921566,5.96e-4 1.6177169,0.01694 3.0923299,0.224097 0.4738529,0.06656 0.8693506,0.110293 0.8788832,0.09718 0.0095,-0.01311 0.098408,-0.19507 0.1975092,-0.404344 0.2687485,-0.567549 0.4956199,-0.74195 1.0379859,-0.797927 0.565039,-0.05831 1.065889,0.06921 1.796911,0.457531 1.607295,0.8538 2.274221,1.168421 2.589813,1.221739 0.192782,0.03257 0.407979,0.08797 0.478215,0.123111 0.07024,0.03514 0.33314,0.108481 0.584233,0.162982 0.251093,0.0545 1.251199,0.491633 2.222458,0.971407 1.315833,0.649982 1.878572,0.975267 2.207889,1.276245 0.48628,0.444432 1.104101,1.298074 1.588469,2.194784 0.17262,0.319573 0.439141,0.797819 0.592265,1.062773 0.153127,0.264952 0.278411,0.504218 0.278411,0.531703 0,0.02748 0.09338,0.172402 0.207514,0.322038 0.114134,0.149637 0.207516,0.297276 0.207516,0.32809 0,0.103577 0.817027,1.08398 1.189346,1.427173 0.870625,0.802512 1.587169,0.812402 1.693001,0.02337 0.05451,-0.406473 -0.05973,-0.842023 -0.414037,-1.578503 -0.299496,-0.622547 -0.592047,-1.010529 -1.50213,-1.992141 -1.679504,-1.811491 -2.558821,-3.224415 -2.970318,-4.772826 -0.644081,-2.423587 -0.483814,-6.550927 0.306771,-7.900244 0.403967,-0.68946 0.885871,-0.901248 1.897539,-0.833936 0.369264,0.02457 0.810261,0.104163 0.979994,0.176877 0.169733,0.07272 0.356497,0.131532 0.415029,0.130713 0.05949,-8.47e-4 0.195409,-0.284503 0.308219,-0.643296 0.349183,-1.110571 0.67084,-1.58685 1.478511,-2.189242 0.244636,-0.182458 0.510743,-0.472644 0.607691,-0.662675 0.358193,-0.702119 1.135656,-1.345244 1.826825,-1.511168 0.179881,-0.04318 0.243389,-0.146461 0.402883,-0.655171 0.36005,-1.148391 0.546751,-1.567107 0.814477,-1.826641 0.234682,-0.227502 0.342894,-0.2665496 0.852129,-0.3074863 l 0.58331,-0.046892 0.35642,-0.7923627 c 0.891567,-1.9820471 2.464281,-4.2188017 3.432433,-4.8816905 0.294295,-0.2015025 0.963507,-0.2598896 1.24599,-0.1087092 0.339818,0.181865 1.612153,1.6275656 2.173161,2.4692724 0.623531,0.9355122 1.30713,2.2219577 1.551227,2.9192122 l 0.15256,0.4357813 h 0.48576 c 0.87305,0 1.244956,0.3418618 1.593475,1.4647448 0.410145,1.321426 0.402297,1.305499 0.671006,1.361666 0.642294,0.134255 1.211224,0.593188 1.692645,1.365389 0.152445,0.244524 0.4535,0.552411 0.732799,0.74943 0.65369,0.461118 1.00226,0.95874 1.390616,1.985255 l 0.331899,0.877286 0.249018,-0.05169 c 0.136959,-0.02843 0.286369,-0.08051 0.332023,-0.115731 0.241001,-0.185923 1.369147,-0.231701 1.857877,-0.07539 0.787647,0.251916 1.23281,1.148529 1.500555,3.022303 0.123455,0.863982 0.103533,3.52987 -0.03256,4.357809 -0.375172,2.28231 -0.937593,3.396089 -2.779816,5.504963 -1.382196,1.58226 -1.595064,1.845383 -1.846159,2.281995 -0.531379,0.923979 -0.707532,1.770914 -0.445993,2.144312 0.184231,0.263028 0.590494,0.310225 0.993024,0.115363 0.787257,-0.381104 1.450829,-1.214741 2.582509,-3.244374 0.94639,-1.697321 1.579607,-2.615521 2.154855,-3.124667 0.425324,-0.376452 3.549399,-1.977668 4.233302,-2.16974 0.182613,-0.05129 0.64952,-0.174338 1.037574,-0.273449 0.682132,-0.17422 1.503136,-0.533756 2.365668,-1.03598 0.887532,-0.51678 1.377495,-0.696488 1.898521,-0.69633 0.618969,1.88e-4 0.954031,0.201089 1.292335,0.774876 0.256986,0.435866 0.308086,0.479996 0.509222,0.439769 1.2921,-0.25842 3.730006,-0.405238 4.944531,-0.297776 0.967589,0.08562 1.373073,0.209203 1.73436,0.528622 0.360875,0.319054 0.48297,0.87074 0.405687,1.833115 -0.06873,0.855909 -0.437292,2.798383 -0.614226,3.237231 -0.03682,0.09131 -0.110825,0.315422 -0.164472,0.498035 -0.05365,0.182613 -0.114192,0.370594 -0.13455,0.417734 -0.02036,0.04714 0.111968,0.245476 0.29405,0.440744 0.810688,0.869385 0.633856,1.784727 -0.721086,3.732578 l -0.5595,0.804329 -0.01318,0.830059 c -0.01016,0.641934 -0.06205,0.98056 -0.228827,1.494106 -0.118609,0.365228 -0.216484,0.81346 -0.217497,0.996072 -0.0031,0.554057 -0.464169,2.14596 -0.828345,2.859799 -0.188643,0.369771 -1.242802,1.800876 -1.92149,2.608578 -0.422431,0.502729 -0.476238,0.60702 -0.449879,0.871977 0.05129,0.515542 -0.117618,1.180284 -0.412765,1.624469 -0.251515,0.378519 -0.610609,0.698394 -1.326651,1.18177 -0.626223,0.422684 -2.117152,0.857478 -3.386369,0.987514 -0.523363,0.05362 -1.979966,-0.07041 -2.54859,-0.217016 -0.710423,-0.18316 -1.67985,-0.4169 -2.780698,-0.670454 -0.886123,-0.204095 -1.419651,-0.245692 -1.969861,-0.153577 -0.958642,0.160492 -1.376941,0.607751 -0.971764,1.039042 0.244757,0.260535 0.748396,0.413773 1.904051,0.57934 2.12204,0.30402 3.044706,0.544802 4.294651,1.120748 0.19353,0.08917 0.370488,0.162133 0.393246,0.162133 0.119387,0 1.909648,1.123439 2.332657,1.46381 0.658769,0.530073 1.55751,1.438713 2.616163,2.644984 1.845991,2.103392 2.098949,2.492358 2.104126,3.235474 0.0047,0.6828 -0.108173,0.813796 -1.861947,2.159922 -1.327818,1.019177 -3.260817,2.109468 -4.898539,2.762981 -1.733275,0.691644 -2.290161,0.866344 -4.025788,1.262934 -0.832396,0.190201 -1.958837,0.280861 -3.546439,0.285428 l -1.720311,0.005 -0.222383,-0.222205 C 47.594722,65.327791 47.579526,64.90341 47.8396,64.70724 c 0.147766,-0.11146 0.427755,-0.129386 1.810459,-0.115915 2.194675,0.0214 3.785588,-0.220462 5.827458,-0.885876 0.45376,-0.14787 1.800445,-0.698043 2.056919,-0.840327 0.149763,-0.08309 0.327189,-0.15106 0.394282,-0.15106 0.06709,0 0.121982,-0.03736 0.121982,-0.08301 0,-0.04565 0.038,-0.08301 0.08445,-0.08301 0.147013,0 1.58006,-0.832336 2.60026,-1.510274 1.381533,-0.918047 2.129637,-1.536822 2.129637,-1.76148 0,-0.41628 -2.900706,-3.71867 -4.139031,-4.712197 -1.873725,-1.503322 -3.419636,-2.129497 -6.319716,-2.559828 -2.071934,-0.307449 -2.761438,-0.624952 -3.18625,-1.467211 -0.298056,-0.590945 -0.105566,-1.472381 0.440805,-2.018488 0.571212,-0.570942 1.294297,-0.782793 2.479977,-0.726593 0.807896,0.0383 2.939034,0.479008 4.457266,0.921759 0.194464,0.05671 0.899456,0.09631 1.701621,0.09559 1.335438,-0.0012 1.388899,-0.0081 2.143376,-0.27462 1.093335,-0.386288 1.805063,-0.867238 2.084339,-1.408495 0.05399,-0.104638 0.09851,-0.384782 0.09893,-0.622546 0.0015,-0.894331 0.05379,-1.029411 0.675546,-1.747875 1.655947,-1.913501 2.145659,-2.805959 2.443656,-4.453335 0.111485,-0.616318 0.274708,-1.328504 0.362714,-1.582639 0.107797,-0.311267 0.160673,-0.690505 0.162042,-1.162081 0.0029,-1.018322 0.09565,-1.296094 0.779639,-2.336258 0.33896,-0.515461 0.718458,-1.172786 0.843332,-1.460722 l 0.227044,-0.52352 -0.407235,-0.358541 -0.407234,-0.358542 0.0057,-0.570417 c 0.0036,-0.360099 0.07402,-0.769348 0.190932,-1.109954 0.296531,-0.863917 0.589633,-2.34454 0.645783,-3.262229 0.04606,-0.752819 0.03514,-0.862749 -0.09661,-0.972189 -0.238808,-0.198379 -3.087735,-0.222728 -4.249374,-0.03632 -0.492683,0.07907 -1.18287,0.147589 -1.53375,0.152281 -0.772068,0.01027 -1.001725,-0.124019 -1.310491,-0.766602 -0.157289,-0.327338 -0.249116,-0.427321 -0.392458,-0.427321 -0.150487,0 -1.272057,0.533801 -2.224415,1.058692 -0.359557,0.198171 -0.936541,0.428166 -1.411098,0.562485 -1.17992,0.333966 -1.355275,0.390365 -1.867632,0.600659 -0.296747,0.121799 -0.718607,0.325383 -0.93747,0.452411 -0.218863,0.127029 -0.418639,0.23096 -0.44395,0.23096 -0.02532,0 -0.367047,0.154652 -0.759411,0.343671 -1.192926,0.574687 -1.7079,1.154717 -2.720118,3.063752 -0.991758,1.87044 -1.875738,3.078975 -2.848095,3.893765 -0.37728,0.316143 -1.082268,0.518958 -1.687801,0.485554 -0.455331,-0.02512 -0.621324,-0.07612 -0.911515,-0.280075 -1.203993,-0.846199 -1.042467,-2.855286 0.37996,-4.725969 0.138854,-0.182612 0.687378,-0.822204 1.218942,-1.421315 1.962813,-2.212231 2.473448,-3.220257 2.778386,-5.484732 0.304646,-2.262329 -0.03012,-5.350235 -0.613916,-5.66267 -0.250061,-0.133828 -0.426998,-0.113627 -1.42075,0.1622 -0.836949,0.232305 -0.929455,0.242714 -1.189884,0.1339 -0.333567,-0.139417 -0.566211,-0.45222 -0.719032,-0.966857 -0.376379,-1.267487 -0.525803,-1.588577 -0.862358,-1.853078 -0.485299,-0.381401 -1.209522,-1.129025 -1.566939,-1.617571 -0.252401,-0.345002 -0.384665,-0.445504 -0.715662,-0.543799 -0.921615,-0.27369 -1.066947,-0.440423 -1.384571,-1.588452 -0.245454,-0.88717 -0.420542,-1.286592 -0.563984,-1.286592 -0.06524,0 -0.244575,0.05263 -0.398536,0.116961 -0.153959,0.06433 -0.383047,0.09725 -0.509081,0.07315 -0.217558,-0.04159 -0.642366,-0.446593 -0.642366,-0.612419 0,-0.04265 -0.07842,-0.25456 -0.174284,-0.470916 C 38.274164,9.9747596 38.166679,9.7230364 38.131164,9.6317298 37.954111,9.1765293 37.47051,8.2344788 37.1172,7.6565376 36.725548,7.015875 35.654666,5.6283771 35.316396,5.3233083 c -0.172419,-0.1554965 -0.178268,-0.1554965 -0.351791,0 -0.248182,0.2223997 -1.134204,1.3695178 -1.628786,2.1087644 -0.379811,0.5676962 -1.431988,2.6254063 -1.431988,2.8004913 0,0.144425 -0.35779,0.810879 -0.488947,0.910761 -0.16101,0.122616 -0.891468,0.140819 -0.963657,0.02402 -0.09106,-0.147339 -0.342746,-0.08828 -0.442144,0.103757 -0.09498,0.183509 -0.290484,0.782187 -0.520472,1.593843 -0.160546,0.56659 -0.512639,0.90009 -1.085654,1.028325 -0.491584,0.110011 -0.784893,0.352779 -1.169335,0.967839 -0.259252,0.414773 -0.398936,0.564409 -0.989931,1.060467 -0.542515,0.455366 -0.641007,0.624688 -1.024769,1.761735 -0.449572,1.332033 -0.750282,1.488444 -2.072217,1.077842 -0.754762,-0.234435 -1.299254,-0.264767 -1.48149,-0.08254 -0.517737,0.517738 -0.77575,4.250968 -0.430307,6.226203 0.162882,0.931362 0.522439,1.994696 0.833355,2.464521 0.113784,0.17194 0.206879,0.350771 0.206879,0.397403 0,0.04664 0.03736,0.08479 0.08301,0.08479 0.04565,0 0.08301,0.03693 0.08301,0.08206 0,0.04513 0.05241,0.14785 0.116487,0.228265 0.402629,0.505363 1.131004,1.363505 1.427497,1.681819 1.65339,1.775064 2.247545,2.854359 2.329803,4.23213 0.03925,0.657302 0.02571,0.738345 -0.193422,1.159086 -0.129589,0.248804 -0.379216,0.566301 -0.554727,0.70555 -0.30251,0.240008 -0.356491,0.252793 -1.037574,0.245722 -0.564593,-0.0059 -0.807349,-0.04853 -1.133493,-0.199252 -0.937211,-0.433113 -2.201626,-2.025852 -3.427191,-4.31711 -0.508768,-0.951171 -1.143289,-1.866004 -1.519395,-2.190619 -0.201186,-0.173644 -0.974824,-0.625286 -1.719195,-1.00365 C 15.32244,27.760089 15.013341,27.628975 14.182075,27.394769 13.248234,27.131662 12.356423,26.82038 12.065424,26.655961 11.257596,26.199527 10.081703,25.625404 9.8508168,25.574693 9.5995815,25.519508 9.5807593,25.535281 9.3249997,26.015132 9.1297869,26.38139 8.9798589,26.551071 8.757206,26.657731 8.46677,26.796861 8.3965524,26.795364 7.0020618,26.620274 5.3960083,26.418627 3.1036996,26.374591 2.4734934,26.533277 l -0.3687811,0.09286 v 0.653002 c 0,0.359152 0.035711,0.812287 0.079365,1.006968 0.043653,0.194682 0.1369093,0.652787 0.2072462,1.018014 0.07034,0.365227 0.2400656,1.018723 0.3771726,1.452216 0.1486367,0.469944 0.2492868,0.968683 0.2492868,1.23526 0,0.41921 -0.023296,0.470383 -0.3735264,0.820616 -0.2054402,0.205441 -0.3734977,0.43398 -0.3734624,0.507866 1.027e-4,0.209112 0.4380565,1.072133 0.8612684,1.697195 0.2110658,0.311733 0.383756,0.585032 0.383756,0.607331 0,0.0223 0.089295,0.15945 0.1984249,0.304777 0.2508586,0.334054 0.3275071,0.67515 0.3391616,1.509321 0.00519,0.372997 0.072362,0.864141 0.1532229,1.120578 0.079166,0.251095 0.2171974,0.916228 0.3067276,1.478078 0.2681211,1.682601 0.7833132,2.697022 2.1981912,4.32827 0.8858907,1.021363 0.9542813,1.157265 0.9544393,1.896576 7.73e-5,0.363852 0.047718,0.697949 0.1192635,0.836294 0.3440781,0.665376 1.5087205,1.312179 2.8544235,1.585257 1.546255,0.313776 2.490719,0.226583 5.004053,-0.461974 1.797102,-0.492335 3.439607,-0.5701 4.252966,-0.20136 0.926824,0.420179 1.345369,1.077256 1.285463,2.018059 -0.02811,0.441415 -0.07763,0.585065 -0.297314,0.862441 -0.458457,0.578847 -1.142699,0.81051 -3.382525,1.145211 -0.958483,0.143231 -1.177905,0.193543 -2.216575,0.50827 -2.172823,0.658383 -4.138326,2.089757 -6.1296689,4.46392 -1.0671658,1.27232 -1.7390227,2.137406 -1.7377039,2.237477 0.00221,0.16542 0.1004402,0.261664 0.9158815,0.8971 1.6945183,1.320461 4.1998753,2.734803 5.8893323,3.324688 2.269506,0.792415 4.407038,1.151427 6.598972,1.10834 1.331147,-0.02617 1.421682,-0.01801 1.597864,0.143717 0.217184,0.199377 0.244717,0.598417 0.0583,0.844972 -0.09286,0.122816 -0.270993,0.177741 -0.723662,0.223133 -0.773917,0.07761 -2.14196,0.06729 -3.090659,-0.02327 z m 10.217059,-0.08132 c -0.163289,-0.128442 -0.214845,-0.244137 -0.214845,-0.482131 0,-0.419481 0.131448,-0.517125 1.12058,-0.832392 2.416431,-0.770187 3.279609,-1.322663 4.045502,-2.58931 0.661896,-1.094663 0.764912,-1.903064 0.701929,-5.508274 -0.02633,-1.507308 -0.09017,-2.944509 -0.141938,-3.195729 -0.388471,-1.885025 -1.23227,-3.055933 -3.360404,-4.663109 -2.232838,-1.686249 -3.192316,-3.395862 -3.393942,-6.047384 -0.0804,-1.057354 0.331442,-4.140271 0.792479,-5.932193 0.140951,-0.547838 0.284925,-1.126804 0.319944,-1.286591 0.111743,-0.509883 0.575072,-2.217661 0.66791,-2.461842 0.215377,-0.566487 -0.218964,-0.526372 5.699221,-0.526372 3.263951,0 5.404579,0.0311 5.495646,0.07984 0.196332,0.105069 0.272576,0.316133 0.675818,1.870805 0.4242,1.635475 0.73834,2.9625 0.864581,3.652261 0.0752,0.41088 0.169594,0.896464 0.209766,1.079075 0.312378,1.420021 0.315815,4.386629 0.0062,5.365395 -0.580657,1.835692 -1.34446,2.866849 -3.170052,4.27967 -0.48357,0.374235 -1.204336,1.005542 -1.601704,1.402911 -0.601135,0.601133 -0.783544,0.849336 -1.086014,1.47773 -0.635189,1.319623 -0.70703,1.864748 -0.70703,5.364989 0,3.222706 0.04563,3.678364 0.463184,4.625532 0.285471,0.647547 0.888129,1.380777 1.470306,1.788861 0.476949,0.334323 0.678956,0.442439 1.4075,0.753301 0.464361,0.198141 1.790693,0.631945 1.932131,0.631945 0.215231,0 0.6203,0.459033 0.6203,0.702938 0,0.120851 -0.09127,0.308941 -0.205185,0.42286 l -0.205186,0.205185 -6.095936,-0.0045 c -6.002676,-0.0044 -6.099222,-0.0071 -6.310779,-0.173482 z m 8.583784,-1.13512 c 0,-0.03581 -0.112478,-0.13155 -0.249951,-0.212757 -0.44916,-0.265329 -1.221126,-1.042371 -1.629876,-1.640594 -0.398086,-0.582618 -0.401297,-0.585031 -0.526192,-0.395112 -0.381513,0.580134 -0.891755,1.190118 -1.25696,1.502665 -0.227744,0.194907 -0.533278,0.455999 -0.678966,0.580209 l -0.264885,0.22583 2.303416,0.0025 c 1.266877,0.0012 2.303414,-0.02685 2.303414,-0.06267 z M 35.439472,50.657397 c 0.120009,-0.239678 0.307401,-0.554684 0.416428,-0.700011 0.109023,-0.145329 0.198059,-0.294739 0.19785,-0.332026 -2.08e-4,-0.03728 -0.411088,-0.07109 -0.913065,-0.07513 -0.501977,-0.0041 -0.912686,0.01071 -0.912686,0.03292 0,0.02215 0.124109,0.230884 0.275797,0.463877 0.151689,0.23299 0.340204,0.563693 0.418925,0.734894 0.07872,0.171199 0.178097,0.311273 0.220839,0.311273 0.04275,0 0.175904,-0.196102 0.295912,-0.435783 z m 1.071191,-2.511796 c 2.122808,-0.447533 3.856586,-1.981831 4.595113,-4.066424 0.270731,-0.764176 0.371983,-3.047836 0.184014,-4.150293 -0.323897,-1.899699 -0.644514,-3.36528 -1.125837,-5.146369 -0.111038,-0.41088 -0.233768,-0.877788 -0.272737,-1.037574 l -0.07085,-0.29052 -4.662063,-0.02144 -4.662061,-0.02144 -0.05115,0.228956 c -0.04856,0.217344 -0.195412,0.776476 -0.496165,1.889076 -0.253149,0.936497 -0.288239,1.080055 -0.456502,1.867633 -0.662913,3.102863 -0.757068,5.373452 -0.281485,6.788205 0.553256,1.64582 2.016298,3.11054 3.722395,3.726664 0.974742,0.35201 2.532854,0.453725 3.577327,0.233529 z M 15.925192,59.556334 c -2.044615,-0.141847 -2.020584,-0.19358 0.166765,-0.359031 3.105886,-0.234925 5.832481,-0.561785 7.366024,-0.883025 0.216852,-0.04542 0.571702,-0.11902 0.788555,-0.163544 0.216854,-0.04453 0.935892,-0.21617 1.597865,-0.381433 0.661972,-0.165264 1.33432,-0.32872 1.494106,-0.363235 1.211246,-0.261633 5.644404,-1.994768 5.644404,-2.20667 0,-0.01521 -0.438894,-0.298231 -0.97532,-0.628905 C 28.754512,52.56516 24.451573,49.450707 21.652602,47.075586 20.511495,46.107275 18.538096,44.368926 17.921238,43.788657 16.026071,42.005909 13.332143,39.318209 12.388551,38.268764 11.253062,37.005889 9.5635322,35.05657 9.1151224,34.491995 8.8431739,34.149594 8.5760491,33.822159 8.5215101,33.76436 8.2515123,33.478218 6.8243424,31.570821 6.8563169,31.538845 c 0.020247,-0.02025 0.5183269,0.47718 1.1068426,1.105393 1.9107641,2.039649 6.2493115,6.324501 8.1280455,8.02745 0.136959,0.124144 0.398823,0.362649 0.581919,0.53001 1.071353,0.979294 2.058551,1.859928 2.530521,2.257368 0.296592,0.249755 0.67601,0.578308 0.843152,0.730115 0.167141,0.151811 0.413253,0.357249 0.546915,0.456534 0.133662,0.09928 0.308542,0.246564 0.388623,0.327285 0.204403,0.206041 3.141612,2.547642 4.239522,3.379831 0.502185,0.380643 1.050772,0.802441 1.219081,0.937326 0.42757,0.342661 2.363891,1.673129 4.425321,3.040692 0.958718,0.636018 1.883197,1.252371 2.054397,1.369675 l 0.311272,0.213278 v 1.277218 c 0,0.941487 -0.02815,1.300571 -0.107057,1.366064 -0.292565,0.242806 -3.1236,1.311068 -4.541278,1.713603 -0.805093,0.228598 -1.921858,0.486327 -2.739195,0.632165 -0.251094,0.0448 -0.62462,0.116918 -0.830059,0.160265 -0.20544,0.04334 -0.840436,0.136172 -1.411102,0.206282 -0.570665,0.07011 -1.298151,0.165878 -1.616636,0.212815 -0.795535,0.117247 -4.743834,0.165527 -6.061412,0.07412 z m 33.783412,0.0326 c -1.605813,-0.05898 -4.028508,-0.401198 -6.142438,-0.867627 -0.593492,-0.130952 -1.284516,-0.297278 -1.535609,-0.369613 -0.251093,-0.07234 -0.568591,-0.16312 -0.70555,-0.201746 -0.884013,-0.249294 -3.070353,-1.056136 -3.735268,-1.378456 l -0.498036,-0.241422 -0.02529,-0.996071 c -0.04276,-1.68353 -0.08422,-1.590825 1.028401,-2.298872 0.819702,-0.521641 4.021265,-2.684151 4.707223,-3.179519 0.365156,-0.263697 1.337022,-0.982766 1.428182,-1.056689 0.04565,-0.03701 0.639364,-0.486757 1.319357,-0.999416 1.733813,-1.307149 1.620865,-1.217483 3.257995,-2.586459 1.39131,-1.163417 3.053201,-2.611149 4.098041,-3.569944 0.251794,-0.23106 0.830761,-0.755275 1.286595,-1.164929 1.976434,-1.77621 6.494527,-6.229624 7.935501,-7.821907 0.545618,-0.602909 1.112153,-1.180415 1.258966,-1.283349 0.146809,-0.102937 0.226652,-0.132583 0.177422,-0.06589 -0.459385,0.622375 -3.041813,3.849929 -3.185306,3.981042 -0.02498,0.02283 -0.191973,0.209589 -0.37109,0.415029 -0.34323,0.393668 -1.252025,1.411078 -2.073237,2.321016 -1.752432,1.941774 -5.152998,5.231268 -8.102827,7.838169 -2.660441,2.351158 -6.922128,5.561256 -10.072776,7.587274 -1.729619,1.112226 -1.969766,1.261992 -2.026422,1.263743 -0.03283,9.41e-4 -0.146637,0.06874 -0.25291,0.15049 -0.156007,0.120014 -0.171994,0.166129 -0.08301,0.239446 0.351445,0.289547 5.482101,2.181401 5.915901,2.181401 0.07232,0 0.196351,0.03456 0.275625,0.0768 0.07928,0.04224 0.424279,0.136633 0.76668,0.209759 0.342399,0.07312 0.753278,0.166339 0.913064,0.207145 0.159787,0.0408 0.439931,0.111862 0.622545,0.157903 1.424929,0.359276 4.942972,0.808974 8.337574,1.065756 2.146271,0.162355 2.143159,0.199707 -0.02912,0.349653 -1.18855,0.08205 -2.887536,0.09614 -4.490188,0.03728 z M 34.536577,30.006872 c -0.04441,-0.841667 -0.06644,-0.938484 -0.251097,-1.103211 -0.111333,-0.09931 -0.515324,-0.460302 -0.897757,-0.802189 -0.757389,-0.677092 -1.918299,-1.916957 -2.51692,-2.6881 -0.641189,-0.825979 -1.772672,-2.580766 -2.257961,-3.501812 -0.628345,-1.192556 -0.566182,-1.241454 0.257397,-0.202475 1.259527,1.588945 3.748905,4.233626 4.65221,4.942443 0.228266,0.179119 0.524841,0.429014 0.659054,0.555319 0.134212,0.126306 0.269744,0.229647 0.301181,0.229647 0.03144,0 0.08103,-0.66301 0.110216,-1.473355 0.02918,-0.810346 0.07143,-1.958939 0.09388,-2.552432 0.02244,-0.593492 0.07993,-2.255687 0.127735,-3.693763 0.0934,-2.809895 0.286079,-6.378659 0.347702,-6.440283 0.02077,-0.02077 0.06299,0.551346 0.09382,1.27137 0.03083,0.720026 0.109763,2.429718 0.17539,3.799315 0.104251,2.175531 0.261649,6.508121 0.302575,8.328861 0.0094,0.416966 0.04819,0.622548 0.12298,0.651247 0.06011,0.02306 0.49324,-0.294598 0.962518,-0.70592 1.442689,-1.264509 3.273212,-3.200973 4.64302,-4.911734 0.333497,-0.416505 0.618447,-0.721013 0.633223,-0.676684 0.05976,0.179272 -0.810011,1.728595 -1.730833,3.083141 -1.159187,1.705187 -2.552503,3.277533 -3.99674,4.510291 l -0.557511,0.475875 -0.02353,0.889409 -0.02353,0.889408 -0.589179,0.02413 -0.589179,0.02414 z"
     id="path1"
     sodipodi:nodetypes="sssssssssssssscsssssssscsssssscsssssssssssssssssscsssscssssssscssssscsssssscssssssssssssssssssssssssscsscsssssssssssssssssssscsscssssssssssssscsscssscssccccssssssssssssssssssssssssssssssssssssssssssssssssssssssscssssssssssssssscsssssssssssssssssssssssscssssssssssssssssssssssssssssssssssscsssssssssccsssssssssssssssscccsssssssssssscssssssssssssssssssscssssssssssscscsssssssssssssssscsssssssssssssssssssssssssssssssscccccs" /></svg>
